<svg width="1776" height="502" viewBox="0 0 1776 502" fill="none" xmlns="http://www.w3.org/2000/svg">
<path opacity="0.12" d="M930.9 409.636C930.9 409.086 930.45 408.636 929.9 408.636H869.3C869.17 408.636 869.04 408.666 868.92 408.716C868.8 408.766 868.69 408.836 868.59 408.936L838.29 439.236C838.1 439.426 838 439.676 838 439.946V500.546C838 500.676 838.03 500.806 838.08 500.926C838.18 501.166 838.38 501.366 838.62 501.466C838.74 501.516 838.87 501.546 839 501.546H899.6C899.87 501.546 900.12 501.436 900.31 501.256L930.61 470.956C930.7 470.866 930.78 470.756 930.83 470.626C930.88 470.506 930.91 470.376 930.91 470.246V409.636H930.9ZM928.9 469.236H870.3V410.636H928.9V469.236ZM885.94 499.526L914.24 471.226H921.13L892.83 499.526H885.94ZM878.34 499.526L906.64 471.226H913.53L885.23 499.526H878.34ZM870.75 499.526L899.05 471.226H905.94L877.64 499.526H870.75ZM863.15 499.526L891.45 471.226H898.34L870.04 499.526H863.15ZM855.55 499.526L883.85 471.226H890.74L862.44 499.526H855.55ZM847.96 499.526L876.26 471.226H883.15L854.85 499.526H847.96ZM841.42 499.526L869.72 471.226H875.55L847.25 499.526H841.42ZM840.01 454.186L868.31 425.886V432.796L840.01 461.096V454.186ZM840.01 461.806L868.31 433.506V440.416L840.01 468.716V461.806ZM840.01 469.416L868.31 441.116V448.026L840.01 476.326V469.416ZM840.01 477.036L868.31 448.736V455.646L840.01 483.946V477.036ZM840.01 484.656L868.31 456.356V463.266L840.01 491.566V484.656ZM868.31 425.186L840.01 453.486V446.576L868.31 418.276V425.186ZM840.01 492.266L868.31 463.966V469.816L840.01 498.116V492.266ZM868.31 412.046V417.566L840.01 445.866V440.346L868.31 412.046ZM899.19 499.526H893.53L921.83 471.226H927.49L899.19 499.526Z" fill="url(#paint0_linear_402_1648)"/>
<g opacity="0.14">
<path d="M116.353 68.7913C115.764 68.3103 115.162 67.8532 114.561 67.3962L14.4058 167.568C14.8627 168.17 15.3317 168.771 15.8007 169.36L116.353 68.7913Z" fill="url(#paint1_linear_402_1648)"/>
<path d="M91.8942 55.9346C91.0645 55.694 90.2228 55.4655 89.393 55.249L2.27269 142.384C2.48913 143.226 2.71762 144.056 2.95811 144.886L91.8942 55.9346Z" fill="url(#paint2_linear_402_1648)"/>
<path d="M109.078 63.6318C108.416 63.2229 107.743 62.826 107.082 62.4411L9.46358 160.076C9.84838 160.749 10.2452 161.411 10.654 162.072L109.078 63.6318Z" fill="url(#paint3_linear_402_1648)"/>
<path d="M100.949 59.3141C100.215 58.9774 99.4699 58.6526 98.7243 58.352L5.36309 151.729C5.67574 152.475 5.98837 153.22 6.32507 153.954L100.949 59.3141Z" fill="url(#paint4_linear_402_1648)"/>
<path d="M81.673 53.6976C80.7231 53.5653 79.7731 53.445 78.8232 53.3488L0.360732 131.824C0.456931 132.775 0.57719 133.725 0.709464 134.675L81.673 53.6976Z" fill="url(#paint5_linear_402_1648)"/>
<path d="M122.065 73.9268C121.8 73.6622 121.524 73.3976 121.259 73.1451L20.1537 174.267C20.4182 174.532 20.6708 174.809 20.9353 175.073C21.1999 175.338 21.4764 175.602 21.741 175.855L122.846 74.7326C122.594 74.468 122.341 74.1914 122.065 73.9268Z" fill="url(#paint6_linear_402_1648)"/>
<path d="M69.9367 53C68.8184 53.0241 67.7121 53.0722 66.5938 53.1563L0.156293 119.605C0.0841434 120.724 0.0240498 121.83 0 122.949L69.9367 53Z" fill="url(#paint7_linear_402_1648)"/>
<path d="M1.74359 108.757L55.7714 54.7198C54.3284 55.0446 52.8975 55.4174 51.4786 55.8263L2.84989 104.463C2.42902 105.882 2.06826 107.326 1.74359 108.757Z" fill="url(#paint8_linear_402_1648)"/>
<path d="M142.844 129.407C142.916 128.288 142.976 127.182 143 126.063L73.0753 196C74.1936 195.976 75.2999 195.928 76.4182 195.844L142.844 129.407Z" fill="url(#paint9_linear_402_1648)"/>
<path d="M142.639 117.176C142.543 116.225 142.423 115.275 142.291 114.325L61.339 195.29C62.2889 195.423 63.2389 195.543 64.1888 195.639L142.639 117.176Z" fill="url(#paint10_linear_402_1648)"/>
<path d="M35.1848 62.8741C30.0983 65.8808 25.3124 69.5611 20.9353 73.9268C16.5703 78.2926 12.8787 83.0913 9.88446 88.1787L35.1848 62.8741Z" fill="url(#paint11_linear_402_1648)"/>
<path d="M140.162 144.537C140.571 143.118 140.944 141.686 141.268 140.243L87.2406 194.28C88.6836 193.955 90.1145 193.583 91.5335 193.174L140.162 144.537Z" fill="url(#paint12_linear_402_1648)"/>
<path d="M107.827 186.126C112.914 183.119 117.7 179.439 122.077 175.073C126.442 170.707 130.133 165.909 133.128 160.821L107.827 186.126Z" fill="url(#paint13_linear_402_1648)"/>
<path d="M133.548 88.9244C133.164 88.2509 132.767 87.5894 132.358 86.9279L33.9342 185.368C34.5956 185.777 35.269 186.174 35.9303 186.559L133.548 88.9244Z" fill="url(#paint14_linear_402_1648)"/>
<path d="M128.606 81.4316C128.149 80.8303 127.68 80.2289 127.211 79.6396L26.6592 180.209C27.2484 180.69 27.8496 181.147 28.4509 181.604L128.606 81.4316Z" fill="url(#paint15_linear_402_1648)"/>
<path d="M140.751 106.616C140.535 105.774 140.306 104.944 140.066 104.114L51.1298 193.065C51.9595 193.306 52.7892 193.534 53.631 193.751L140.751 106.616Z" fill="url(#paint16_linear_402_1648)"/>
<path d="M137.649 97.2711C137.336 96.5254 137.024 95.7797 136.687 95.0461L42.063 189.686C42.7966 190.023 43.5421 190.335 44.2877 190.648L137.649 97.2711Z" fill="url(#paint17_linear_402_1648)"/>
</g>
<g opacity="0.14">
<path d="M480.353 361.791C479.764 361.31 479.162 360.853 478.561 360.396L378.406 460.568C378.863 461.17 379.332 461.771 379.801 462.36L480.353 361.791Z" fill="url(#paint18_linear_402_1648)"/>
<path d="M455.894 348.935C455.064 348.694 454.223 348.466 453.393 348.249L366.273 435.384C366.489 436.226 366.718 437.056 366.958 437.886L455.894 348.935Z" fill="url(#paint19_linear_402_1648)"/>
<path d="M473.078 356.632C472.416 356.223 471.743 355.826 471.082 355.441L373.464 453.076C373.848 453.749 374.245 454.411 374.654 455.072L473.078 356.632Z" fill="url(#paint20_linear_402_1648)"/>
<path d="M464.949 352.314C464.215 351.977 463.47 351.653 462.724 351.352L369.363 444.729C369.676 445.475 369.988 446.22 370.325 446.954L464.949 352.314Z" fill="url(#paint21_linear_402_1648)"/>
<path d="M445.673 346.698C444.723 346.565 443.773 346.445 442.823 346.349L364.361 424.824C364.457 425.775 364.577 426.725 364.709 427.675L445.673 346.698Z" fill="url(#paint22_linear_402_1648)"/>
<path d="M486.065 366.927C485.8 366.662 485.524 366.398 485.259 366.145L384.154 467.267C384.418 467.532 384.671 467.809 384.935 468.073C385.2 468.338 385.476 468.602 385.741 468.855L486.846 367.733C486.594 367.468 486.341 367.191 486.065 366.927Z" fill="url(#paint23_linear_402_1648)"/>
<path d="M433.937 346C432.818 346.024 431.712 346.072 430.594 346.156L364.156 412.605C364.084 413.724 364.024 414.83 364 415.949L433.937 346Z" fill="url(#paint24_linear_402_1648)"/>
<path d="M365.744 401.757L419.771 347.72C418.328 348.045 416.897 348.417 415.479 348.826L366.85 397.463C366.429 398.882 366.068 400.326 365.744 401.757Z" fill="url(#paint25_linear_402_1648)"/>
<path d="M506.844 422.407C506.916 421.288 506.976 420.182 507 419.063L437.075 489C438.194 488.976 439.3 488.928 440.418 488.844L506.844 422.407Z" fill="url(#paint26_linear_402_1648)"/>
<path d="M506.639 410.176C506.543 409.225 506.423 408.275 506.291 407.325L425.339 488.29C426.289 488.423 427.239 488.543 428.189 488.639L506.639 410.176Z" fill="url(#paint27_linear_402_1648)"/>
<path d="M399.185 355.874C394.098 358.881 389.312 362.561 384.935 366.927C380.57 371.293 376.879 376.091 373.884 381.179L399.185 355.874Z" fill="url(#paint28_linear_402_1648)"/>
<path d="M504.162 437.537C504.571 436.118 504.944 434.686 505.268 433.243L451.241 487.28C452.684 486.955 454.115 486.583 455.533 486.174L504.162 437.537Z" fill="url(#paint29_linear_402_1648)"/>
<path d="M471.827 479.126C476.914 476.119 481.7 472.439 486.077 468.073C490.442 463.707 494.133 458.909 497.128 453.821L471.827 479.126Z" fill="url(#paint30_linear_402_1648)"/>
<path d="M497.548 381.924C497.164 381.251 496.767 380.589 496.358 379.928L397.934 478.368C398.596 478.777 399.269 479.174 399.93 479.559L497.548 381.924Z" fill="url(#paint31_linear_402_1648)"/>
<path d="M492.606 374.432C492.149 373.83 491.68 373.229 491.211 372.64L390.659 473.209C391.248 473.69 391.85 474.147 392.451 474.604L492.606 374.432Z" fill="url(#paint32_linear_402_1648)"/>
<path d="M504.751 399.616C504.535 398.774 504.306 397.944 504.066 397.114L415.13 486.065C415.96 486.306 416.789 486.534 417.631 486.751L504.751 399.616Z" fill="url(#paint33_linear_402_1648)"/>
<path d="M501.649 390.271C501.336 389.525 501.024 388.78 500.687 388.046L406.063 482.686C406.797 483.023 407.542 483.335 408.288 483.648L501.649 390.271Z" fill="url(#paint34_linear_402_1648)"/>
</g>
<path d="M1775.96 202.829C1766.97 204.233 1757.76 204.962 1748.37 204.962C1650.41 204.962 1571 125.55 1571 27.591C1571 18.2059 1571.73 8.99109 1573.13 1.77318e-05L1576.33 1.74527e-05C1574.9 8.98652 1574.15 18.202 1574.15 27.591C1574.15 123.809 1652.15 201.809 1748.37 201.809C1757.76 201.809 1766.97 201.066 1775.96 199.636L1775.96 202.829Z" fill="url(#paint35_linear_402_1648)" fill-opacity="0.22"/>
<path d="M1775.96 173.802C1767.02 175.479 1757.8 176.356 1748.37 176.356C1666.21 176.356 1599.61 109.751 1599.61 27.5912C1599.61 18.1636 1600.48 8.94085 1602.16 1.51942e-05L1605.37 1.49136e-05C1603.66 8.9338 1602.76 18.1578 1602.76 27.5912C1602.76 108.01 1667.95 173.202 1748.37 173.202C1757.8 173.202 1767.03 172.305 1775.96 170.592L1775.96 173.802Z" fill="url(#paint36_linear_402_1648)" fill-opacity="0.22"/>
<path d="M1775.96 144.591C1767.1 146.672 1757.86 147.773 1748.37 147.773C1682 147.773 1628.19 93.9658 1628.19 27.5912C1628.19 18.0967 1629.29 8.85946 1631.37 1.26405e-05L1634.61 1.23571e-05C1632.47 8.84732 1631.34 18.0869 1631.34 27.5912C1631.34 92.2243 1683.74 144.62 1748.37 144.62C1757.87 144.62 1767.11 143.487 1775.96 141.349L1775.96 144.591Z" fill="url(#paint37_linear_402_1648)" fill-opacity="0.22"/>
<path d="M1775.96 114.962C1767.25 117.709 1757.98 119.19 1748.37 119.19C1697.78 119.19 1656.77 78.1801 1656.77 27.5911C1656.77 17.9761 1658.25 8.70717 1661 1.00503e-05L1664.31 9.76062e-06C1661.46 8.682 1659.92 17.9567 1659.92 27.5911C1659.92 76.4385 1699.52 116.037 1748.37 116.037C1758 116.037 1767.28 114.497 1775.96 111.649L1775.96 114.962Z" fill="url(#paint38_linear_402_1648)" fill-opacity="0.22"/>
<path d="M1775.96 84.2654C1751.39 96.2293 1720.92 91.1431 1701.66 69.8625C1683.89 50.2214 1680.8 22.4455 1691.71 7.36533e-06L1695.24 7.05677e-06C1684.06 21.5543 1686.75 48.6838 1704 67.7469C1722.66 88.3629 1752.39 92.9796 1775.96 80.7349L1775.96 84.2654Z" fill="url(#paint39_linear_402_1648)" fill-opacity="0.22"/>
<g opacity="0.4">
<path d="M1366.17 174.7C1365.94 174.7 1365.72 174.768 1365.53 174.894C1365.34 175.021 1365.19 175.2 1365.11 175.41C1365.02 175.62 1365 175.851 1365.04 176.075C1365.08 176.298 1365.19 176.502 1365.35 176.663C1365.52 176.824 1365.72 176.934 1365.94 176.978C1366.16 177.022 1366.4 177 1366.6 176.912C1366.81 176.825 1366.99 176.678 1367.12 176.489C1367.25 176.3 1367.31 176.078 1367.31 175.85C1367.31 175.546 1367.19 175.255 1366.97 175.04C1366.76 174.825 1366.47 174.703 1366.17 174.7Z" fill="white"/>
<path d="M1366.17 155.78C1365.94 155.78 1365.72 155.848 1365.53 155.974C1365.34 156.1 1365.19 156.28 1365.11 156.49C1365.02 156.7 1365 156.931 1365.04 157.154C1365.08 157.377 1365.19 157.582 1365.35 157.743C1365.52 157.904 1365.72 158.013 1365.94 158.058C1366.16 158.102 1366.4 158.079 1366.6 157.992C1366.81 157.905 1366.99 157.758 1367.12 157.569C1367.25 157.38 1367.31 157.157 1367.31 156.93C1367.31 156.626 1367.19 156.335 1366.97 156.12C1366.76 155.905 1366.47 155.783 1366.17 155.78Z" fill="white"/>
<path d="M1366.17 136.851C1365.94 136.851 1365.72 136.918 1365.53 137.044C1365.34 137.171 1365.19 137.35 1365.11 137.56C1365.02 137.77 1365 138.002 1365.04 138.225C1365.08 138.448 1365.19 138.653 1365.35 138.813C1365.52 138.974 1365.72 139.084 1365.94 139.128C1366.16 139.172 1366.4 139.15 1366.6 139.063C1366.81 138.976 1366.99 138.828 1367.12 138.639C1367.25 138.45 1367.31 138.228 1367.31 138C1367.31 137.696 1367.19 137.405 1366.97 137.19C1366.76 136.975 1366.47 136.853 1366.17 136.851Z" fill="white"/>
<path d="M1366.17 117.921C1365.94 117.919 1365.71 117.986 1365.52 118.113C1365.33 118.239 1365.18 118.42 1365.09 118.632C1365 118.844 1364.98 119.078 1365.02 119.304C1365.07 119.53 1365.18 119.737 1365.34 119.9C1365.5 120.062 1365.71 120.173 1365.93 120.218C1366.16 120.262 1366.39 120.238 1366.6 120.149C1366.82 120.06 1367 119.91 1367.12 119.718C1367.25 119.526 1367.31 119.301 1367.31 119.071C1367.31 118.767 1367.19 118.476 1366.97 118.261C1366.76 118.045 1366.47 117.924 1366.17 117.921Z" fill="white"/>
<path d="M1366.17 99.0009C1365.94 99.0009 1365.72 99.0683 1365.53 99.1947C1365.34 99.321 1365.19 99.5006 1365.11 99.7107C1365.02 99.9208 1365 100.152 1365.04 100.375C1365.08 100.598 1365.19 100.803 1365.35 100.964C1365.52 101.125 1365.72 101.234 1365.94 101.278C1366.16 101.323 1366.4 101.3 1366.6 101.213C1366.81 101.126 1366.99 100.979 1367.12 100.79C1367.25 100.6 1367.31 100.378 1367.31 100.151C1367.31 99.8465 1367.19 99.5555 1366.97 99.3404C1366.76 99.1253 1366.47 99.0034 1366.17 99.0009Z" fill="white"/>
<path d="M1383.58 174.7C1383.35 174.71 1383.14 174.785 1382.95 174.917C1382.77 175.048 1382.63 175.231 1382.55 175.442C1382.47 175.652 1382.46 175.882 1382.51 176.102C1382.56 176.322 1382.67 176.522 1382.83 176.678C1382.99 176.834 1383.2 176.939 1383.42 176.98C1383.64 177.021 1383.87 176.996 1384.07 176.907C1384.28 176.819 1384.46 176.672 1384.58 176.484C1384.71 176.296 1384.77 176.076 1384.77 175.85C1384.77 175.695 1384.74 175.542 1384.68 175.399C1384.62 175.257 1384.53 175.128 1384.42 175.02C1384.31 174.913 1384.18 174.829 1384.03 174.774C1383.89 174.719 1383.73 174.694 1383.58 174.7Z" fill="white"/>
<path d="M1383.58 155.78C1383.35 155.789 1383.14 155.864 1382.95 155.996C1382.77 156.128 1382.63 156.311 1382.55 156.521C1382.47 156.732 1382.46 156.962 1382.51 157.182C1382.56 157.401 1382.67 157.602 1382.83 157.758C1382.99 157.914 1383.2 158.019 1383.42 158.06C1383.64 158.101 1383.87 158.075 1384.07 157.987C1384.28 157.899 1384.46 157.752 1384.58 157.564C1384.71 157.376 1384.77 157.155 1384.77 156.93C1384.77 156.775 1384.74 156.622 1384.68 156.479C1384.62 156.336 1384.53 156.207 1384.42 156.1C1384.31 155.993 1384.18 155.909 1384.03 155.854C1383.89 155.799 1383.73 155.774 1383.58 155.78Z" fill="white"/>
<path d="M1383.58 136.851C1383.35 136.86 1383.14 136.935 1382.95 137.067C1382.77 137.198 1382.63 137.381 1382.55 137.592C1382.47 137.803 1382.46 138.032 1382.51 138.252C1382.56 138.472 1382.67 138.672 1382.83 138.829C1382.99 138.985 1383.2 139.09 1383.42 139.13C1383.64 139.171 1383.87 139.146 1384.07 139.057C1384.28 138.969 1384.46 138.822 1384.58 138.634C1384.71 138.446 1384.77 138.226 1384.77 138C1384.77 137.845 1384.74 137.692 1384.68 137.549C1384.62 137.407 1384.53 137.278 1384.42 137.17C1384.31 137.063 1384.18 136.979 1384.03 136.924C1383.89 136.869 1383.73 136.844 1383.58 136.851Z" fill="white"/>
<path d="M1383.58 117.921C1383.35 117.928 1383.13 118.003 1382.95 118.135C1382.76 118.267 1382.62 118.451 1382.54 118.664C1382.45 118.877 1382.44 119.109 1382.49 119.332C1382.54 119.554 1382.65 119.757 1382.81 119.915C1382.98 120.073 1383.19 120.179 1383.41 120.22C1383.63 120.261 1383.86 120.234 1384.07 120.144C1384.28 120.054 1384.46 119.904 1384.58 119.713C1384.71 119.522 1384.77 119.299 1384.77 119.071C1384.77 118.916 1384.74 118.762 1384.68 118.62C1384.62 118.477 1384.53 118.348 1384.42 118.241C1384.31 118.133 1384.18 118.05 1384.03 117.995C1383.89 117.94 1383.73 117.915 1383.58 117.921Z" fill="white"/>
<path d="M1383.58 99.001C1383.35 99.0101 1383.14 99.0853 1382.95 99.217C1382.77 99.3488 1382.63 99.5314 1382.55 99.7422C1382.47 99.9529 1382.46 100.182 1382.51 100.402C1382.56 100.622 1382.67 100.823 1382.83 100.979C1382.99 101.135 1383.2 101.24 1383.42 101.281C1383.64 101.321 1383.87 101.296 1384.07 101.208C1384.28 101.12 1384.46 100.972 1384.58 100.784C1384.71 100.596 1384.77 100.376 1384.77 100.151C1384.77 99.9957 1384.74 99.8423 1384.68 99.6997C1384.62 99.557 1384.53 99.4281 1384.42 99.3207C1384.31 99.2133 1384.18 99.1296 1384.03 99.0747C1383.89 99.0197 1383.73 98.9946 1383.58 99.001Z" fill="white"/>
<path d="M1401 174.7C1400.77 174.7 1400.55 174.768 1400.36 174.894C1400.17 175.021 1400.03 175.2 1399.94 175.41C1399.85 175.62 1399.83 175.851 1399.88 176.075C1399.92 176.298 1400.03 176.502 1400.19 176.663C1400.35 176.824 1400.55 176.934 1400.78 176.978C1401 177.022 1401.23 177 1401.44 176.912C1401.65 176.825 1401.83 176.678 1401.95 176.489C1402.08 176.3 1402.15 176.078 1402.15 175.85C1402.15 175.545 1402.03 175.253 1401.81 175.037C1401.6 174.822 1401.3 174.7 1401 174.7Z" fill="white"/>
<path d="M1401 155.78C1400.77 155.78 1400.55 155.848 1400.36 155.974C1400.17 156.1 1400.03 156.28 1399.94 156.49C1399.85 156.7 1399.83 156.931 1399.88 157.154C1399.92 157.377 1400.03 157.582 1400.19 157.743C1400.35 157.904 1400.55 158.013 1400.78 158.058C1401 158.102 1401.23 158.079 1401.44 157.992C1401.65 157.905 1401.83 157.758 1401.95 157.569C1402.08 157.38 1402.15 157.157 1402.15 156.93C1402.15 156.625 1402.03 156.333 1401.81 156.117C1401.6 155.901 1401.3 155.78 1401 155.78Z" fill="white"/>
<path d="M1401 136.851C1400.77 136.851 1400.55 136.918 1400.36 137.044C1400.17 137.171 1400.03 137.35 1399.94 137.56C1399.85 137.77 1399.83 138.002 1399.88 138.225C1399.92 138.448 1400.03 138.653 1400.19 138.813C1400.35 138.974 1400.55 139.084 1400.78 139.128C1401 139.172 1401.23 139.15 1401.44 139.063C1401.65 138.976 1401.83 138.828 1401.95 138.639C1402.08 138.45 1402.15 138.228 1402.15 138C1402.15 137.695 1402.03 137.403 1401.81 137.187C1401.6 136.972 1401.3 136.851 1401 136.851Z" fill="white"/>
<path d="M1401 117.921C1400.77 117.919 1400.55 117.986 1400.35 118.113C1400.16 118.239 1400.01 118.42 1399.92 118.632C1399.84 118.844 1399.81 119.078 1399.86 119.304C1399.9 119.53 1400.01 119.737 1400.17 119.9C1400.34 120.062 1400.54 120.173 1400.77 120.218C1400.99 120.262 1401.23 120.238 1401.44 120.149C1401.65 120.06 1401.83 119.91 1401.96 119.718C1402.08 119.526 1402.15 119.301 1402.15 119.071C1402.15 118.766 1402.03 118.473 1401.81 118.258C1401.6 118.042 1401.3 117.921 1401 117.921Z" fill="white"/>
<path d="M1401 99.0009C1400.77 99.0009 1400.55 99.0683 1400.36 99.1947C1400.17 99.321 1400.03 99.5006 1399.94 99.7107C1399.85 99.9208 1399.83 100.152 1399.88 100.375C1399.92 100.598 1400.03 100.803 1400.19 100.964C1400.35 101.125 1400.55 101.234 1400.78 101.278C1401 101.323 1401.23 101.3 1401.44 101.213C1401.65 101.126 1401.83 100.979 1401.95 100.79C1402.08 100.6 1402.15 100.378 1402.15 100.151C1402.15 99.8458 1402.03 99.5533 1401.81 99.3377C1401.6 99.122 1401.3 99.0009 1401 99.0009Z" fill="white"/>
<path d="M1418.41 174.7C1418.19 174.702 1417.97 174.771 1417.78 174.899C1417.59 175.026 1417.44 175.206 1417.36 175.417C1417.27 175.627 1417.25 175.858 1417.3 176.08C1417.34 176.303 1417.45 176.507 1417.61 176.667C1417.77 176.826 1417.98 176.935 1418.2 176.979C1418.42 177.022 1418.65 176.999 1418.86 176.912C1419.07 176.824 1419.25 176.677 1419.38 176.488C1419.5 176.299 1419.57 176.077 1419.57 175.85C1419.57 175.698 1419.54 175.548 1419.48 175.408C1419.42 175.268 1419.34 175.141 1419.23 175.034C1419.12 174.927 1418.99 174.842 1418.85 174.785C1418.71 174.728 1418.56 174.699 1418.41 174.7Z" fill="white"/>
<path d="M1418.41 155.78C1418.19 155.782 1417.97 155.851 1417.78 155.978C1417.59 156.106 1417.44 156.286 1417.36 156.496C1417.27 156.707 1417.25 156.938 1417.3 157.16C1417.34 157.382 1417.45 157.586 1417.61 157.746C1417.77 157.906 1417.98 158.015 1418.2 158.058C1418.42 158.102 1418.65 158.079 1418.86 157.991C1419.07 157.904 1419.25 157.757 1419.38 157.568C1419.5 157.379 1419.57 157.157 1419.57 156.93C1419.57 156.778 1419.54 156.628 1419.48 156.488C1419.42 156.348 1419.34 156.221 1419.23 156.114C1419.12 156.007 1418.99 155.922 1418.85 155.865C1418.71 155.808 1418.56 155.779 1418.41 155.78Z" fill="white"/>
<path d="M1418.41 136.851C1418.19 136.852 1417.97 136.921 1417.78 137.049C1417.59 137.176 1417.44 137.357 1417.36 137.567C1417.27 137.777 1417.25 138.008 1417.3 138.23C1417.34 138.453 1417.45 138.657 1417.61 138.817C1417.77 138.977 1417.98 139.085 1418.2 139.129C1418.42 139.172 1418.65 139.149 1418.86 139.062C1419.07 138.974 1419.25 138.827 1419.38 138.638C1419.5 138.449 1419.57 138.227 1419.57 138C1419.57 137.849 1419.54 137.698 1419.48 137.558C1419.42 137.418 1419.34 137.291 1419.23 137.184C1419.12 137.077 1418.99 136.993 1418.85 136.935C1418.71 136.878 1418.56 136.849 1418.41 136.851Z" fill="white"/>
<path d="M1418.41 117.921C1418.13 117.947 1417.86 118.08 1417.66 118.293C1417.47 118.507 1417.36 118.786 1417.36 119.076C1417.36 119.365 1417.47 119.644 1417.66 119.858C1417.86 120.071 1418.13 120.204 1418.41 120.23C1418.57 120.244 1418.73 120.225 1418.89 120.174C1419.04 120.122 1419.18 120.04 1419.3 119.931C1419.42 119.823 1419.51 119.69 1419.57 119.543C1419.64 119.396 1419.67 119.236 1419.67 119.076C1419.67 118.915 1419.64 118.755 1419.57 118.608C1419.51 118.461 1419.42 118.328 1419.3 118.22C1419.18 118.111 1419.04 118.029 1418.89 117.977C1418.73 117.926 1418.57 117.907 1418.41 117.921Z" fill="white"/>
<path d="M1418.41 99.0009C1418.19 99.0028 1417.97 99.0718 1417.78 99.1992C1417.59 99.3267 1417.44 99.5069 1417.36 99.7172C1417.27 99.9274 1417.25 100.158 1417.3 100.381C1417.34 100.603 1417.45 100.807 1417.61 100.967C1417.77 101.127 1417.98 101.235 1418.2 101.279C1418.42 101.323 1418.65 101.299 1418.86 101.212C1419.07 101.125 1419.25 100.977 1419.38 100.789C1419.5 100.6 1419.57 100.378 1419.57 100.151C1419.57 99.999 1419.54 99.8487 1419.48 99.7086C1419.42 99.5685 1419.34 99.4413 1419.23 99.3344C1419.12 99.2275 1418.99 99.143 1418.85 99.0858C1418.71 99.0285 1418.56 98.9997 1418.41 99.0009Z" fill="white"/>
<path d="M1435.83 174.7C1435.61 174.704 1435.39 174.775 1435.2 174.903C1435.02 175.032 1434.87 175.213 1434.79 175.423C1434.7 175.633 1434.68 175.864 1434.73 176.086C1434.78 176.308 1434.89 176.511 1435.05 176.67C1435.21 176.829 1435.41 176.936 1435.64 176.979C1435.86 177.022 1436.09 176.998 1436.3 176.911C1436.5 176.823 1436.68 176.676 1436.81 176.487C1436.93 176.298 1437 176.077 1437 175.85C1437 175.698 1436.97 175.547 1436.91 175.406C1436.85 175.265 1436.77 175.138 1436.66 175.031C1436.55 174.924 1436.42 174.839 1436.28 174.783C1436.14 174.726 1435.99 174.698 1435.83 174.7Z" fill="white"/>
<path d="M1435.83 155.78C1435.61 155.78 1435.39 155.848 1435.2 155.974C1435.01 156.1 1434.86 156.28 1434.77 156.49C1434.69 156.7 1434.66 156.931 1434.71 157.154C1434.75 157.377 1434.86 157.582 1435.02 157.743C1435.18 157.904 1435.39 158.013 1435.61 158.058C1435.83 158.102 1436.06 158.079 1436.27 157.992C1436.48 157.905 1436.66 157.758 1436.79 157.569C1436.91 157.38 1436.98 157.157 1436.98 156.93C1436.98 156.625 1436.86 156.333 1436.65 156.117C1436.43 155.901 1436.14 155.78 1435.83 155.78Z" fill="white"/>
<path d="M1435.83 136.851C1435.61 136.851 1435.39 136.918 1435.2 137.044C1435.01 137.171 1434.86 137.35 1434.77 137.56C1434.69 137.77 1434.66 138.002 1434.71 138.225C1434.75 138.448 1434.86 138.653 1435.02 138.813C1435.18 138.974 1435.39 139.084 1435.61 139.128C1435.83 139.172 1436.06 139.15 1436.27 139.063C1436.48 138.976 1436.66 138.828 1436.79 138.639C1436.91 138.45 1436.98 138.228 1436.98 138C1436.98 137.695 1436.86 137.403 1436.65 137.187C1436.43 136.972 1436.14 136.851 1435.83 136.851Z" fill="white"/>
<path d="M1435.83 117.921C1435.6 117.919 1435.38 117.986 1435.19 118.113C1435 118.239 1434.85 118.42 1434.76 118.632C1434.67 118.844 1434.65 119.078 1434.69 119.304C1434.73 119.53 1434.85 119.737 1435.01 119.9C1435.17 120.062 1435.38 120.173 1435.6 120.218C1435.83 120.262 1436.06 120.238 1436.27 120.149C1436.48 120.06 1436.66 119.91 1436.79 119.718C1436.92 119.526 1436.98 119.301 1436.98 119.071C1436.98 118.766 1436.86 118.473 1436.65 118.258C1436.43 118.042 1436.14 117.921 1435.83 117.921Z" fill="white"/>
<path d="M1435.83 99.0009C1435.61 99.0009 1435.39 99.0683 1435.2 99.1947C1435.01 99.321 1434.86 99.5006 1434.77 99.7107C1434.69 99.9208 1434.66 100.152 1434.71 100.375C1434.75 100.598 1434.86 100.803 1435.02 100.964C1435.18 101.125 1435.39 101.234 1435.61 101.278C1435.83 101.323 1436.06 101.3 1436.27 101.213C1436.48 101.126 1436.66 100.979 1436.79 100.79C1436.91 100.6 1436.98 100.378 1436.98 100.151C1436.98 99.8458 1436.86 99.5533 1436.65 99.3377C1436.43 99.122 1436.14 99.0009 1435.83 99.0009Z" fill="white"/>
</g>
<path d="M678.343 131.672C678.343 102.582 654.762 79 625.672 79C596.582 79 573 102.582 573 131.672C573 160.762 596.582 184.343 625.672 184.343C654.762 184.343 678.343 160.762 678.343 131.672Z" stroke="url(#paint40_linear_402_1648)" stroke-opacity="0.05" stroke-width="12" stroke-miterlimit="10"/>
<defs>
<linearGradient id="paint0_linear_402_1648" x1="873.5" y1="402.136" x2="896.5" y2="546.136" gradientUnits="userSpaceOnUse">
<stop offset="0.00124296" stop-color="#E7E7E7" stop-opacity="0"/>
<stop offset="1" stop-color="#E7E7E7"/>
</linearGradient>
<linearGradient id="paint1_linear_402_1648" x1="35.5" y1="79.5" x2="123.5" y2="204.5" gradientUnits="userSpaceOnUse">
<stop stop-color="#939393" stop-opacity="0"/>
<stop offset="1" stop-color="#939393"/>
</linearGradient>
<linearGradient id="paint2_linear_402_1648" x1="35.5" y1="79.5" x2="123.5" y2="204.5" gradientUnits="userSpaceOnUse">
<stop stop-color="#939393" stop-opacity="0"/>
<stop offset="1" stop-color="#939393"/>
</linearGradient>
<linearGradient id="paint3_linear_402_1648" x1="35.5" y1="79.5" x2="123.5" y2="204.5" gradientUnits="userSpaceOnUse">
<stop stop-color="#939393" stop-opacity="0"/>
<stop offset="1" stop-color="#939393"/>
</linearGradient>
<linearGradient id="paint4_linear_402_1648" x1="35.5" y1="79.5" x2="123.5" y2="204.5" gradientUnits="userSpaceOnUse">
<stop stop-color="#939393" stop-opacity="0"/>
<stop offset="1" stop-color="#939393"/>
</linearGradient>
<linearGradient id="paint5_linear_402_1648" x1="35.5" y1="79.5" x2="123.5" y2="204.5" gradientUnits="userSpaceOnUse">
<stop stop-color="#939393" stop-opacity="0"/>
<stop offset="1" stop-color="#939393"/>
</linearGradient>
<linearGradient id="paint6_linear_402_1648" x1="35.5" y1="79.5" x2="123.5" y2="204.5" gradientUnits="userSpaceOnUse">
<stop stop-color="#939393" stop-opacity="0"/>
<stop offset="1" stop-color="#939393"/>
</linearGradient>
<linearGradient id="paint7_linear_402_1648" x1="35.5" y1="79.5" x2="123.5" y2="204.5" gradientUnits="userSpaceOnUse">
<stop stop-color="#939393" stop-opacity="0"/>
<stop offset="1" stop-color="#939393"/>
</linearGradient>
<linearGradient id="paint8_linear_402_1648" x1="35.5" y1="79.5" x2="123.5" y2="204.5" gradientUnits="userSpaceOnUse">
<stop stop-color="#939393" stop-opacity="0"/>
<stop offset="1" stop-color="#939393"/>
</linearGradient>
<linearGradient id="paint9_linear_402_1648" x1="35.5" y1="79.5" x2="123.5" y2="204.5" gradientUnits="userSpaceOnUse">
<stop stop-color="#939393" stop-opacity="0"/>
<stop offset="1" stop-color="#939393"/>
</linearGradient>
<linearGradient id="paint10_linear_402_1648" x1="35.5" y1="79.5" x2="123.5" y2="204.5" gradientUnits="userSpaceOnUse">
<stop stop-color="#939393" stop-opacity="0"/>
<stop offset="1" stop-color="#939393"/>
</linearGradient>
<linearGradient id="paint11_linear_402_1648" x1="35.5" y1="79.5" x2="123.5" y2="204.5" gradientUnits="userSpaceOnUse">
<stop stop-color="#939393" stop-opacity="0"/>
<stop offset="1" stop-color="#939393"/>
</linearGradient>
<linearGradient id="paint12_linear_402_1648" x1="35.5" y1="79.5" x2="123.5" y2="204.5" gradientUnits="userSpaceOnUse">
<stop stop-color="#939393" stop-opacity="0"/>
<stop offset="1" stop-color="#939393"/>
</linearGradient>
<linearGradient id="paint13_linear_402_1648" x1="35.5" y1="79.5" x2="123.5" y2="204.5" gradientUnits="userSpaceOnUse">
<stop stop-color="#939393" stop-opacity="0"/>
<stop offset="1" stop-color="#939393"/>
</linearGradient>
<linearGradient id="paint14_linear_402_1648" x1="35.5" y1="79.5" x2="123.5" y2="204.5" gradientUnits="userSpaceOnUse">
<stop stop-color="#939393" stop-opacity="0"/>
<stop offset="1" stop-color="#939393"/>
</linearGradient>
<linearGradient id="paint15_linear_402_1648" x1="35.5" y1="79.5" x2="123.5" y2="204.5" gradientUnits="userSpaceOnUse">
<stop stop-color="#939393" stop-opacity="0"/>
<stop offset="1" stop-color="#939393"/>
</linearGradient>
<linearGradient id="paint16_linear_402_1648" x1="35.5" y1="79.5" x2="123.5" y2="204.5" gradientUnits="userSpaceOnUse">
<stop stop-color="#939393" stop-opacity="0"/>
<stop offset="1" stop-color="#939393"/>
</linearGradient>
<linearGradient id="paint17_linear_402_1648" x1="35.5" y1="79.5" x2="123.5" y2="204.5" gradientUnits="userSpaceOnUse">
<stop stop-color="#939393" stop-opacity="0"/>
<stop offset="1" stop-color="#939393"/>
</linearGradient>
<linearGradient id="paint18_linear_402_1648" x1="399.5" y1="372.5" x2="487.5" y2="497.5" gradientUnits="userSpaceOnUse">
<stop stop-color="#939393" stop-opacity="0"/>
<stop offset="1" stop-color="#939393"/>
</linearGradient>
<linearGradient id="paint19_linear_402_1648" x1="399.5" y1="372.5" x2="487.5" y2="497.5" gradientUnits="userSpaceOnUse">
<stop stop-color="#939393" stop-opacity="0"/>
<stop offset="1" stop-color="#939393"/>
</linearGradient>
<linearGradient id="paint20_linear_402_1648" x1="399.5" y1="372.5" x2="487.5" y2="497.5" gradientUnits="userSpaceOnUse">
<stop stop-color="#939393" stop-opacity="0"/>
<stop offset="1" stop-color="#939393"/>
</linearGradient>
<linearGradient id="paint21_linear_402_1648" x1="399.5" y1="372.5" x2="487.5" y2="497.5" gradientUnits="userSpaceOnUse">
<stop stop-color="#939393" stop-opacity="0"/>
<stop offset="1" stop-color="#939393"/>
</linearGradient>
<linearGradient id="paint22_linear_402_1648" x1="399.5" y1="372.5" x2="487.5" y2="497.5" gradientUnits="userSpaceOnUse">
<stop stop-color="#939393" stop-opacity="0"/>
<stop offset="1" stop-color="#939393"/>
</linearGradient>
<linearGradient id="paint23_linear_402_1648" x1="399.5" y1="372.5" x2="487.5" y2="497.5" gradientUnits="userSpaceOnUse">
<stop stop-color="#939393" stop-opacity="0"/>
<stop offset="1" stop-color="#939393"/>
</linearGradient>
<linearGradient id="paint24_linear_402_1648" x1="399.5" y1="372.5" x2="487.5" y2="497.5" gradientUnits="userSpaceOnUse">
<stop stop-color="#939393" stop-opacity="0"/>
<stop offset="1" stop-color="#939393"/>
</linearGradient>
<linearGradient id="paint25_linear_402_1648" x1="399.5" y1="372.5" x2="487.5" y2="497.5" gradientUnits="userSpaceOnUse">
<stop stop-color="#939393" stop-opacity="0"/>
<stop offset="1" stop-color="#939393"/>
</linearGradient>
<linearGradient id="paint26_linear_402_1648" x1="399.5" y1="372.5" x2="487.5" y2="497.5" gradientUnits="userSpaceOnUse">
<stop stop-color="#939393" stop-opacity="0"/>
<stop offset="1" stop-color="#939393"/>
</linearGradient>
<linearGradient id="paint27_linear_402_1648" x1="399.5" y1="372.5" x2="487.5" y2="497.5" gradientUnits="userSpaceOnUse">
<stop stop-color="#939393" stop-opacity="0"/>
<stop offset="1" stop-color="#939393"/>
</linearGradient>
<linearGradient id="paint28_linear_402_1648" x1="399.5" y1="372.5" x2="487.5" y2="497.5" gradientUnits="userSpaceOnUse">
<stop stop-color="#939393" stop-opacity="0"/>
<stop offset="1" stop-color="#939393"/>
</linearGradient>
<linearGradient id="paint29_linear_402_1648" x1="399.5" y1="372.5" x2="487.5" y2="497.5" gradientUnits="userSpaceOnUse">
<stop stop-color="#939393" stop-opacity="0"/>
<stop offset="1" stop-color="#939393"/>
</linearGradient>
<linearGradient id="paint30_linear_402_1648" x1="399.5" y1="372.5" x2="487.5" y2="497.5" gradientUnits="userSpaceOnUse">
<stop stop-color="#939393" stop-opacity="0"/>
<stop offset="1" stop-color="#939393"/>
</linearGradient>
<linearGradient id="paint31_linear_402_1648" x1="399.5" y1="372.5" x2="487.5" y2="497.5" gradientUnits="userSpaceOnUse">
<stop stop-color="#939393" stop-opacity="0"/>
<stop offset="1" stop-color="#939393"/>
</linearGradient>
<linearGradient id="paint32_linear_402_1648" x1="399.5" y1="372.5" x2="487.5" y2="497.5" gradientUnits="userSpaceOnUse">
<stop stop-color="#939393" stop-opacity="0"/>
<stop offset="1" stop-color="#939393"/>
</linearGradient>
<linearGradient id="paint33_linear_402_1648" x1="399.5" y1="372.5" x2="487.5" y2="497.5" gradientUnits="userSpaceOnUse">
<stop stop-color="#939393" stop-opacity="0"/>
<stop offset="1" stop-color="#939393"/>
</linearGradient>
<linearGradient id="paint34_linear_402_1648" x1="399.5" y1="372.5" x2="487.5" y2="497.5" gradientUnits="userSpaceOnUse">
<stop stop-color="#939393" stop-opacity="0"/>
<stop offset="1" stop-color="#939393"/>
</linearGradient>
<linearGradient id="paint35_linear_402_1648" x1="1624" y1="159.5" x2="1779.5" y2="2" gradientUnits="userSpaceOnUse">
<stop stop-color="#FDFDFD" stop-opacity="0.42"/>
<stop offset="1" stop-color="#FDFDFD" stop-opacity="0"/>
</linearGradient>
<linearGradient id="paint36_linear_402_1648" x1="1624" y1="159.5" x2="1779.5" y2="2" gradientUnits="userSpaceOnUse">
<stop stop-color="#FDFDFD" stop-opacity="0.42"/>
<stop offset="1" stop-color="#FDFDFD" stop-opacity="0"/>
</linearGradient>
<linearGradient id="paint37_linear_402_1648" x1="1624" y1="159.5" x2="1779.5" y2="2" gradientUnits="userSpaceOnUse">
<stop stop-color="#FDFDFD" stop-opacity="0.42"/>
<stop offset="1" stop-color="#FDFDFD" stop-opacity="0"/>
</linearGradient>
<linearGradient id="paint38_linear_402_1648" x1="1624" y1="159.5" x2="1779.5" y2="2" gradientUnits="userSpaceOnUse">
<stop stop-color="#FDFDFD" stop-opacity="0.42"/>
<stop offset="1" stop-color="#FDFDFD" stop-opacity="0"/>
</linearGradient>
<linearGradient id="paint39_linear_402_1648" x1="1624" y1="159.5" x2="1779.5" y2="2" gradientUnits="userSpaceOnUse">
<stop stop-color="#FDFDFD" stop-opacity="0.42"/>
<stop offset="1" stop-color="#FDFDFD" stop-opacity="0"/>
</linearGradient>
<linearGradient id="paint40_linear_402_1648" x1="697.5" y1="132" x2="573" y2="106.5" gradientUnits="userSpaceOnUse">
<stop stop-color="#EEF6FA"/>
<stop offset="1" stop-color="#EEF6FA" stop-opacity="0"/>
</linearGradient>
</defs>
</svg>
