<svg width="234" height="339" viewBox="0 0 234 339" fill="none" xmlns="http://www.w3.org/2000/svg">
<path d="M20.9463 105.725C20.9463 73.6279 49.4837 49.0392 81.2278 53.7842L180.552 68.631C206.272 72.4756 225.305 94.5653 225.305 120.571V262.147C225.305 288.519 205.748 310.801 179.599 314.221L80.2747 327.212C48.8332 331.324 20.9463 306.847 20.9463 275.138V105.725Z" fill="white" fill-opacity="0.05"/>
<mask id="mask0_402_1047" style="mask-type:alpha" maskUnits="userSpaceOnUse" x="0" y="8" width="234" height="323">
<path d="M0 61.1444C0 28.9814 28.6494 4.37416 60.444 9.22852L188.639 28.8012C214.285 32.7169 233.23 54.7732 233.23 80.7171V261.162C233.23 287.479 213.752 309.732 187.667 313.217L59.4718 330.343C27.9841 334.55 0 310.056 0 278.288V61.1444Z" fill="#DDE3EB"/>
</mask>
<g mask="url(#mask0_402_1047)">
<g opacity="0.2">
<path d="M168.848 240.611L154.472 236.253L140.096 240.611L125.72 236.253L111.345 240.611L96.9687 236.253L82.5929 240.611L68.217 236.253L53.8412 240.611L39.4589 236.253L25.0831 240.611L10.7072 236.253L-3.67506 240.611L-18.1152 236.234L-17.993 236.019L-3.67506 240.358L10.7072 236L25.0831 240.358L39.4589 236L53.8412 240.358L68.217 236L82.5929 240.358L96.9687 236L111.345 240.358L125.72 236L140.096 240.358L154.472 236L168.848 240.358L183.224 236L197.664 240.376L197.542 240.592L183.224 236.253L168.848 240.611Z" fill="white"/>
<path d="M168.848 236.454L154.472 232.097L140.096 236.454L125.72 232.097L111.345 236.454L96.9687 232.097L82.5929 236.454L68.217 232.097L53.8412 236.454L39.4589 232.097L25.0831 236.454L10.7072 232.097L-3.67506 236.454L-18.1152 232.078L-17.993 231.862L-3.67506 236.201L10.7072 231.844L25.0831 236.201L39.4589 231.844L53.8412 236.201L68.217 231.844L82.5929 236.201L96.9687 231.844L111.345 236.201L125.72 231.844L140.096 236.201L154.472 231.844L168.848 236.201L183.224 231.844L197.664 236.22L197.542 236.436L183.224 232.097L168.848 236.454Z" fill="white"/>
<path d="M168.848 232.296L154.472 227.938L140.096 232.296L125.72 227.938L111.345 232.296L96.9687 227.938L82.5929 232.296L68.217 227.938L53.8412 232.296L39.4589 227.938L25.0831 232.296L10.7072 227.938L-3.67506 232.296L-18.1152 227.92L-17.993 227.704L-3.67506 232.043L10.7072 227.686L25.0831 232.043L39.4589 227.686L53.8412 232.043L68.217 227.686L82.5929 232.043L96.9687 227.686L111.345 232.043L125.72 227.686L140.096 232.043L154.472 227.686L168.848 232.043L183.224 227.686L197.664 232.062L197.542 232.277L183.224 227.938L168.848 232.296Z" fill="white"/>
<path d="M168.848 228.14L154.472 223.782L140.096 228.14L125.72 223.782L111.345 228.14L96.9687 223.782L82.5929 228.14L68.217 223.782L53.8412 228.14L39.4589 223.782L25.0831 228.14L10.7072 223.782L-3.67506 228.14L-18.1152 223.763L-17.993 223.548L-3.67506 227.887L10.7072 223.529L25.0831 227.887L39.4589 223.529L53.8412 227.887L68.217 223.529L82.5929 227.887L96.9687 223.529L111.345 227.887L125.72 223.529L140.096 227.887L154.472 223.529L168.848 227.887L183.224 223.529L197.664 227.906L197.542 228.121L183.224 223.782L168.848 228.14Z" fill="white"/>
<path d="M168.848 223.984L154.472 219.627L140.096 223.984L125.72 219.627L111.345 223.984L96.9687 219.627L82.5929 223.984L68.217 219.627L53.8412 223.984L39.4589 219.627L25.0831 223.984L10.7072 219.627L-3.67506 223.984L-18.1152 219.608L-17.993 219.388L-3.67506 223.732L10.7072 219.369L25.0831 223.732L39.4589 219.369L53.8412 223.732L68.217 219.369L82.5929 223.732L96.9687 219.369L111.345 223.732L125.72 219.369L140.096 223.732L154.472 219.369L168.848 223.732L183.224 219.369L197.664 223.75L197.542 223.966L183.224 219.627L168.848 223.984Z" fill="white"/>
<path d="M168.848 219.828L154.472 215.466L140.096 219.828L125.72 215.466L111.345 219.828L96.9687 215.466L82.5929 219.828L68.217 215.466L53.8412 219.828L39.4589 215.466L25.0831 219.828L10.7072 215.466L-3.67506 219.828L-18.1152 215.447L-17.993 215.232L-3.67506 219.575L10.7072 215.213L25.0831 219.575L39.4589 215.213L53.8412 219.575L68.217 215.213L82.5929 219.575L96.9687 215.213L111.345 219.575L125.72 215.213L140.096 219.575L154.472 215.213L168.848 219.575L183.224 215.213L197.664 219.594L197.542 219.809L183.224 215.466L168.848 219.828Z" fill="white"/>
<path d="M168.848 215.672L154.472 211.309L140.096 215.672L125.72 211.309L111.345 215.672L96.9687 211.309L82.5929 215.672L68.217 211.309L53.8412 215.672L39.4589 211.309L25.0831 215.672L10.7072 211.309L-3.67506 215.672L-18.1152 211.291L-17.993 211.075L-3.67506 215.419L10.7072 211.057L25.0831 215.419L39.4589 211.057L53.8412 215.419L68.217 211.057L82.5929 215.419L96.9687 211.057L111.345 215.419L125.72 211.057L140.096 215.419L154.472 211.057L168.848 215.419L183.224 211.057L197.664 215.438L197.542 215.653L183.224 211.309L168.848 215.672Z" fill="white"/>
<path d="M168.848 211.514L154.472 207.151L140.096 211.514L125.72 207.151L111.345 211.514L96.9687 207.151L82.5929 211.514L68.217 207.151L53.8412 211.514L39.4589 207.151L25.0831 211.514L10.7072 207.151L-3.67506 211.514L-18.1152 207.132L-17.993 206.917L-3.67506 211.256L10.7072 206.898L25.0831 211.256L39.4589 206.898L53.8412 211.256L68.217 206.898L82.5929 211.256L96.9687 206.898L111.345 211.256L125.72 206.898L140.096 211.256L154.472 206.898L168.848 211.256L183.224 206.898L197.664 211.275L197.542 211.495L183.224 207.151L168.848 211.514Z" fill="white"/>
<path d="M168.848 207.353L154.472 202.995L140.096 207.353L125.72 202.995L111.345 207.353L96.9687 202.995L82.5929 207.353L68.217 202.995L53.8412 207.353L39.4589 202.995L25.0831 207.353L10.7072 202.995L-3.67506 207.353L-18.1152 202.976L-17.993 202.761L-3.67506 207.1L10.7072 202.742L25.0831 207.1L39.4589 202.742L53.8412 207.1L68.217 202.742L82.5929 207.1L96.9687 202.742L111.345 207.1L125.72 202.742L140.096 207.1L154.472 202.742L168.848 207.1L183.224 202.742L197.664 207.119L197.542 207.334L183.224 202.995L168.848 207.353Z" fill="white"/>
<path d="M168.848 203.196L154.472 198.839L140.096 203.196L125.72 198.839L111.345 203.196L96.9687 198.839L82.5929 203.196L68.217 198.839L53.8412 203.196L39.4589 198.839L25.0831 203.196L10.7072 198.839L-3.67506 203.196L-18.1152 198.82L-17.993 198.605L-3.67506 202.944L10.7072 198.586L25.0831 202.944L39.4589 198.586L53.8412 202.944L68.217 198.586L82.5929 202.944L96.9687 198.586L111.345 202.944L125.72 198.586L140.096 202.944L154.472 198.586L168.848 202.944L183.224 198.586L197.664 202.962L197.542 203.178L183.224 198.839L168.848 203.196Z" fill="white"/>
<path d="M168.848 199.04L154.472 194.682L140.096 199.04L125.72 194.682L111.345 199.04L96.9687 194.682L82.5929 199.04L68.217 194.682L53.8412 199.04L39.4589 194.682L25.0831 199.04L10.7072 194.682L-3.67506 199.04L-18.1152 194.664L-17.993 194.448L-3.67506 198.787L10.7072 194.43L25.0831 198.787L39.4589 194.43L53.8412 198.787L68.217 194.43L82.5929 198.787L96.9687 194.43L111.345 198.787L125.72 194.43L140.096 198.787L154.472 194.43L168.848 198.787L183.224 194.43L197.664 198.806L197.542 199.021L183.224 194.682L168.848 199.04Z" fill="white"/>
<path d="M168.848 194.885L154.472 190.527L140.096 194.885L125.72 190.527L111.345 194.885L96.9687 190.527L82.5929 194.885L68.217 190.527L53.8412 194.885L39.4589 190.527L25.0831 194.885L10.7072 190.527L-3.67506 194.885L-18.1152 190.508L-17.993 190.288L-3.67506 194.632L10.7072 190.27L25.0831 194.632L39.4589 190.27L53.8412 194.632L68.217 190.27L82.5929 194.632L96.9687 190.27L111.345 194.632L125.72 190.27L140.096 194.632L154.472 190.27L168.848 194.632L183.224 190.27L197.664 194.651L197.542 194.866L183.224 190.527L168.848 194.885Z" fill="white"/>
<path d="M168.848 190.727L154.472 186.369L140.096 190.727L125.72 186.369L111.345 190.727L96.9687 186.369L82.5929 190.727L68.217 186.369L53.8412 190.727L39.4589 186.369L25.0831 190.727L10.7072 186.369L-3.67506 190.727L-18.1152 186.35L-17.993 186.13L-3.67506 190.474L10.7072 186.111L25.0831 190.474L39.4589 186.111L53.8412 190.474L68.217 186.111L82.5929 190.474L96.9687 186.111L111.345 190.474L125.72 186.111L140.096 190.474L154.472 186.111L168.848 190.474L183.224 186.111L197.664 190.492L197.542 190.708L183.224 186.369L168.848 190.727Z" fill="white"/>
<path d="M25.0831 186.57L10.7072 182.208L-3.67506 186.57L-18.1152 182.189L-17.993 181.974L-3.67506 186.318L10.7072 181.955L25.0831 186.318L39.4589 181.955L53.8412 186.318L68.217 181.955L82.5929 186.318L96.9687 181.955L111.345 186.318L125.72 181.955L140.096 186.318L154.472 181.955L168.848 186.318L183.224 181.955L197.664 186.336L197.542 186.552L183.224 182.208L168.848 186.57L154.472 182.208L140.096 186.57L125.72 182.208L111.345 186.57L96.9687 182.208L82.5929 186.57L68.217 182.208L53.8412 186.57L39.4589 182.208L25.0831 186.57Z" fill="white"/>
<path d="M168.848 182.414L154.472 178.052L140.096 182.414L125.72 178.052L111.345 182.414L96.9687 178.052L82.5929 182.414L68.217 178.052L53.8412 182.414L39.4589 178.052L25.0831 182.414L10.7072 178.052L-3.67506 182.414L-18.1152 178.033L-17.993 177.818L-3.67506 182.157L10.7072 177.799L25.0831 182.157L39.4589 177.799L53.8412 182.157L68.217 177.799L82.5929 182.157L96.9687 177.799L111.345 182.157L125.72 177.799L140.096 182.157L154.472 177.799L168.848 182.157L183.224 177.799L197.664 182.175L197.542 182.395L183.224 178.052L168.848 182.414Z" fill="white"/>
<path d="M168.848 178.258L154.472 173.895L140.096 178.258L125.72 173.895L111.345 178.258L96.9687 173.895L82.5929 178.258L68.217 173.895L53.8412 178.258L39.4589 173.895L25.0831 178.258L10.7072 173.895L-3.67506 178.258L-18.1152 173.877L-17.993 173.661L-3.67506 178L10.7072 173.643L25.0831 178L39.4589 173.643L53.8412 178L68.217 173.643L82.5929 178L96.9687 173.643L111.345 178L125.72 173.643L140.096 178L154.472 173.643L168.848 178L183.224 173.643L197.664 178.019L197.542 178.239L183.224 173.895L168.848 178.258Z" fill="white"/>
<path d="M168.848 174.097L154.472 169.739L140.096 174.097L125.72 169.739L111.345 174.097L96.9687 169.739L82.5929 174.097L68.217 169.739L53.8412 174.097L39.4589 169.739L25.0831 174.097L10.7072 169.739L-3.67506 174.097L-18.1152 169.72L-17.993 169.505L-3.67506 173.844L10.7072 169.486L25.0831 173.844L39.4589 169.486L53.8412 173.844L68.217 169.486L82.5929 173.844L96.9687 169.486L111.345 173.844L125.72 169.486L140.096 173.844L154.472 169.486L168.848 173.844L183.224 169.486L197.664 173.863L197.542 174.078L183.224 169.739L168.848 174.097Z" fill="white"/>
<path d="M168.848 169.941L154.472 165.583L140.096 169.941L125.72 165.583L111.345 169.941L96.9687 165.583L82.5929 169.941L68.217 165.583L53.8412 169.941L39.4589 165.583L25.0831 169.941L10.7072 165.583L-3.67506 169.941L-18.1152 165.564L-17.993 165.349L-3.67506 169.688L10.7072 165.33L25.0831 169.688L39.4589 165.33L53.8412 169.688L68.217 165.33L82.5929 169.688L96.9687 165.33L111.345 169.688L125.72 165.33L140.096 169.688L154.472 165.33L168.848 169.688L183.224 165.33L197.664 169.707L197.542 169.922L183.224 165.583L168.848 169.941Z" fill="white"/>
<path d="M168.848 165.784L154.472 161.427L140.096 165.784L125.72 161.427L111.345 165.784L96.9687 161.427L82.5929 165.784L68.217 161.427L53.8412 165.784L39.4589 161.427L25.0831 165.784L10.7072 161.427L-3.67506 165.784L-18.1152 161.408L-17.993 161.193L-3.67506 165.532L10.7072 161.174L25.0831 165.532L39.4589 161.174L53.8412 165.532L68.217 161.174L82.5929 165.532L96.9687 161.174L111.345 165.532L125.72 161.174L140.096 165.532L154.472 161.174L168.848 165.532L183.224 161.174L197.664 165.55L197.542 165.766L183.224 161.427L168.848 165.784Z" fill="white"/>
<path d="M168.848 161.627L154.472 157.269L140.096 161.627L125.72 157.269L111.345 161.627L96.9687 157.269L82.5929 161.627L68.217 157.269L53.8412 161.627L39.4589 157.269L25.0831 161.627L10.7072 157.269L-3.67506 161.627L-18.1152 157.25L-17.993 157.03L-3.67506 161.374L10.7072 157.012L25.0831 161.374L39.4589 157.012L53.8412 161.374L68.217 157.012L82.5929 161.374L96.9687 157.012L111.345 161.374L125.72 157.012L140.096 161.374L154.472 157.012L168.848 161.374L183.224 157.012L197.664 161.393L197.542 161.608L183.224 157.269L168.848 161.627Z" fill="white"/>
<path d="M168.848 157.471L154.472 153.113L140.096 157.471L125.72 153.113L111.345 157.471L96.9687 153.113L82.5929 157.471L68.217 153.113L53.8412 157.471L39.4589 153.113L25.0831 157.471L10.7072 153.113L-3.67506 157.471L-18.1152 153.094L-17.993 152.874L-3.67506 157.218L10.7072 152.855L25.0831 157.218L39.4589 152.855L53.8412 157.218L68.217 152.855L82.5929 157.218L96.9687 152.855L111.345 157.218L125.72 152.855L140.096 157.218L154.472 152.855L168.848 157.218L183.224 152.855L197.664 157.237L197.542 157.452L183.224 153.113L168.848 157.471Z" fill="white"/>
<path d="M168.848 153.314L154.472 148.952L140.096 153.314L125.72 148.952L111.345 153.314L96.9687 148.952L82.5929 153.314L68.217 148.952L53.8412 153.314L39.4589 148.952L25.0831 153.314L10.7072 148.952L-3.67506 153.314L-18.1152 148.933L-17.993 148.718L-3.67506 153.062L10.7072 148.699L25.0831 153.062L39.4589 148.699L53.8412 153.062L68.217 148.699L82.5929 153.062L96.9687 148.699L111.345 153.062L125.72 148.699L140.096 153.062L154.472 148.699L168.848 153.062L183.224 148.699L197.664 153.08L197.542 153.296L183.224 148.952L168.848 153.314Z" fill="white"/>
<path d="M168.848 149.158L154.472 144.796L140.096 149.158L125.72 144.796L111.345 149.158L96.9687 144.796L82.5929 149.158L68.217 144.796L53.8412 149.158L39.4589 144.796L25.0831 149.158L10.7072 144.796L-3.67506 149.158L-18.1152 144.777L-17.993 144.562L-3.67506 148.901L10.7072 144.543L25.0831 148.901L39.4589 144.543L53.8412 148.901L68.217 144.543L82.5929 148.901L96.9687 144.543L111.345 148.901L125.72 144.543L140.096 148.901L154.472 144.543L168.848 148.901L183.224 144.543L197.664 148.919L197.542 149.139L183.224 144.796L168.848 149.158Z" fill="white"/>
<path d="M168.848 144.997L154.472 140.639L140.096 144.997L125.72 140.639L111.345 144.997L96.9687 140.639L82.5929 144.997L68.217 140.639L53.8412 144.997L39.4589 140.639L25.0831 144.997L10.7072 140.639L-3.67506 144.997L-18.1152 140.621L-17.993 140.405L-3.67506 144.744L10.7072 140.387L25.0831 144.744L39.4589 140.387L53.8412 144.744L68.217 140.387L82.5929 144.744L96.9687 140.387L111.345 144.744L125.72 140.387L140.096 144.744L154.472 140.387L168.848 144.744L183.224 140.387L197.664 144.763L197.542 144.983L183.224 140.639L168.848 144.997Z" fill="white"/>
<path d="M168.848 140.841L154.472 136.483L140.096 140.841L125.72 136.483L111.345 140.841L96.9687 136.483L82.5929 140.841L68.217 136.483L53.8412 140.841L39.4589 136.483L25.0831 140.841L10.7072 136.483L-3.67506 140.841L-18.1152 136.465L-17.993 136.249L-3.67506 140.588L10.7072 136.23L25.0831 140.588L39.4589 136.23L53.8412 140.588L68.217 136.23L82.5929 140.588L96.9687 136.23L111.345 140.588L125.72 136.23L140.096 140.588L154.472 136.23L168.848 140.588L183.224 136.23L197.664 140.607L197.542 140.822L183.224 136.483L168.848 140.841Z" fill="white"/>
<path d="M168.848 136.685L154.472 132.327L140.096 136.685L125.72 132.327L111.345 136.685L96.9687 132.327L82.5929 136.685L68.217 132.327L53.8412 136.685L39.4589 132.327L25.0831 136.685L10.7072 132.327L-3.67506 136.685L-18.1152 132.308L-17.993 132.093L-3.67506 136.432L10.7072 132.074L25.0831 136.432L39.4589 132.074L53.8412 136.432L68.217 132.074L82.5929 136.432L96.9687 132.074L111.345 136.432L125.72 132.074L140.096 136.432L154.472 132.074L168.848 136.432L183.224 132.074L197.664 136.451L197.542 136.666L183.224 132.327L168.848 136.685Z" fill="white"/>
<path d="M168.848 132.528L154.472 128.171L140.096 132.528L125.72 128.171L111.345 132.528L96.9687 128.171L82.5929 132.528L68.217 128.171L53.8412 132.528L39.4589 128.171L25.0831 132.528L10.7072 128.171L-3.67506 132.528L-18.1152 128.152L-17.993 127.937L-3.67506 132.276L10.7072 127.918L25.0831 132.276L39.4589 127.918L53.8412 132.276L68.217 127.918L82.5929 132.276L96.9687 127.918L111.345 132.276L125.72 127.918L140.096 132.276L154.472 127.918L168.848 132.276L183.224 127.918L197.664 132.294L197.542 132.51L183.224 128.171L168.848 132.528Z" fill="white"/>
<path d="M168.848 128.371L154.472 124.013L140.096 128.371L125.72 124.013L111.345 128.371L96.9687 124.013L82.5929 128.371L68.217 124.013L53.8412 128.371L39.4589 124.013L25.0831 128.371L10.7072 124.013L-3.67506 128.371L-18.1152 123.995L-17.993 123.775L-3.67506 128.118L10.7072 123.756L25.0831 128.118L39.4589 123.756L53.8412 128.118L68.217 123.756L82.5929 128.118L96.9687 123.756L111.345 128.118L125.72 123.756L140.096 128.118L154.472 123.756L168.848 128.118L183.224 123.756L197.664 128.137L197.542 128.352L183.224 124.013L168.848 128.371Z" fill="white"/>
<path d="M168.848 124.215L154.472 119.857L140.096 124.215L125.72 119.857L111.345 124.215L96.9687 119.857L82.5929 124.215L68.217 119.857L53.8412 124.215L39.4589 119.857L25.0831 124.215L10.7072 119.857L-3.67506 124.215L-18.1152 119.838L-17.993 119.618L-3.67506 123.962L10.7072 119.6L25.0831 123.962L39.4589 119.6L53.8412 123.962L68.217 119.6L82.5929 123.962L96.9687 119.6L111.345 123.962L125.72 119.6L140.096 123.962L154.472 119.6L168.848 123.962L183.224 119.6L197.664 123.981L197.542 124.196L183.224 119.857L168.848 124.215Z" fill="white"/>
<path d="M168.848 120.059L154.472 115.696L140.096 120.059L125.72 115.696L111.345 120.059L96.9687 115.696L82.5929 120.059L68.217 115.696L53.8412 120.059L39.4589 115.696L25.0831 120.059L10.7072 115.696L-3.67506 120.059L-18.1152 115.677L-17.993 115.462L-3.67506 119.806L10.7072 115.443L25.0831 119.806L39.4589 115.443L53.8412 119.806L68.217 115.443L82.5929 119.806L96.9687 115.443L111.345 119.806L125.72 115.443L140.096 119.806L154.472 115.443L168.848 119.806L183.224 115.443L197.664 119.825L197.542 120.04L183.224 115.696L168.848 120.059Z" fill="white"/>
<path d="M168.848 115.902L154.472 111.54L140.096 115.902L125.72 111.54L111.345 115.902L96.9687 111.54L82.5929 115.902L68.217 111.54L53.8412 115.902L39.4589 111.54L25.0831 115.902L10.7072 111.54L-3.67506 115.902L-18.1152 111.521L-17.993 111.306L-3.67506 115.645L10.7072 111.287L25.0831 115.645L39.4589 111.287L53.8412 115.645L68.217 111.287L82.5929 115.645L96.9687 111.287L111.345 115.645L125.72 111.287L140.096 115.645L154.472 111.287L168.848 115.645L183.224 111.287L197.664 115.664L197.542 115.884L183.224 111.54L168.848 115.902Z" fill="white"/>
<path d="M168.848 111.741L154.472 107.384L140.096 111.741L125.72 107.384L111.345 111.741L96.9687 107.384L82.5929 111.741L68.217 107.384L53.8412 111.741L39.4589 107.384L25.0831 111.741L10.7072 107.384L-3.67506 111.741L-18.1152 107.365L-17.993 107.15L-3.67506 111.489L10.7072 107.131L25.0831 111.489L39.4589 107.131L53.8412 111.489L68.217 107.131L82.5929 111.489L96.9687 107.131L111.345 111.489L125.72 107.131L140.096 111.489L154.472 107.131L168.848 111.489L183.224 107.131L197.664 111.507L197.542 111.723L183.224 107.384L168.848 111.741Z" fill="white"/>
<path d="M168.848 107.583L154.472 103.225L140.096 107.583L125.72 103.225L111.345 107.583L96.9687 103.225L82.5929 107.583L68.217 103.225L53.8412 107.583L39.4589 103.225L25.0831 107.583L10.7072 103.225L-3.67506 107.583L-18.1152 103.207L-17.993 102.991L-3.67506 107.33L10.7072 102.973L25.0831 107.33L39.4589 102.973L53.8412 107.33L68.217 102.973L82.5929 107.33L96.9687 102.973L111.345 107.33L125.72 102.973L140.096 107.33L154.472 102.973L168.848 107.33L183.224 102.973L197.664 107.349L197.542 107.564L183.224 103.225L168.848 107.583Z" fill="white"/>
<path d="M168.848 103.427L154.472 99.0692L140.096 103.427L125.72 99.0692L111.345 103.427L96.9687 99.0692L82.5929 103.427L68.217 99.0692L53.8412 103.427L39.4589 99.0692L25.0831 103.427L10.7072 99.0692L-3.67506 103.427L-18.1152 99.0504L-17.993 98.8351L-3.67506 103.174L10.7072 98.8164L25.0831 103.174L39.4589 98.8164L53.8412 103.174L68.217 98.8164L82.5929 103.174L96.9687 98.8164L111.345 103.174L125.72 98.8164L140.096 103.174L154.472 98.8164L168.848 103.174L183.224 98.8164L197.664 103.193L197.542 103.408L183.224 99.0692L168.848 103.427Z" fill="white"/>
<path d="M168.848 99.2707L154.472 94.9129L140.096 99.2707L125.72 94.9129L111.345 99.2707L96.9687 94.9129L82.5929 99.2707L68.217 94.9129L53.8412 99.2707L39.4589 94.9129L25.0831 99.2707L10.7072 94.9129L-3.67506 99.2707L-18.1152 94.8942L-17.993 94.6789L-3.67506 99.0179L10.7072 94.6602L25.0831 99.0179L39.4589 94.6602L53.8412 99.0179L68.217 94.6602L82.5929 99.0179L96.9687 94.6602L111.345 99.0179L125.72 94.6602L140.096 99.0179L154.472 94.6602L168.848 99.0179L183.224 94.6602L197.664 99.0366L197.542 99.2519L183.224 94.9129L168.848 99.2707Z" fill="white"/>
<path d="M168.848 95.1152L154.472 90.7574L140.096 95.1152L125.72 90.7574L111.345 95.1152L96.9687 90.7574L82.5929 95.1152L68.217 90.7574L53.8412 95.1152L39.4589 90.7574L25.0831 95.1152L10.7072 90.7574L-3.67506 95.1152L-18.1152 90.7387L-17.993 90.5187L-3.67506 94.8624L10.7072 90.5L25.0831 94.8624L39.4589 90.5L53.8412 94.8624L68.217 90.5L82.5929 94.8624L96.9687 90.5L111.345 94.8624L125.72 90.5L140.096 94.8624L154.472 90.5L168.848 94.8624L183.224 90.5L197.664 94.8812L197.542 95.0965L183.224 90.7574L168.848 95.1152Z" fill="white"/>
<path d="M168.848 90.9589L154.472 86.6012L140.096 90.9589L125.72 86.6012L111.345 90.9589L96.9687 86.6012L82.5929 90.9589L68.217 86.6012L53.8412 90.9589L39.4589 86.6012L25.0831 90.9589L10.7072 86.6012L-3.67506 90.9589L-18.1152 86.5825L-17.993 86.3625L-3.67506 90.7062L10.7072 86.3438L25.0831 90.7062L39.4589 86.3438L53.8412 90.7062L68.217 86.3438L82.5929 90.7062L96.9687 86.3438L111.345 90.7062L125.72 86.3438L140.096 90.7062L154.472 86.3438L168.848 90.7062L183.224 86.3438L197.664 90.7249L197.542 90.9402L183.224 86.6012L168.848 90.9589Z" fill="white"/>
<path d="M168.848 86.8007L154.472 82.4383L140.096 86.8007L125.72 82.4383L111.345 86.8007L96.9687 82.4383L82.5929 86.8007L68.217 82.4383L53.8412 86.8007L39.4589 82.4383L25.0831 86.8007L10.7072 82.4383L-3.67506 86.8007L-18.1152 82.4196L-17.993 82.2043L-3.67506 86.548L10.7072 82.1855L25.0831 86.548L39.4589 82.1855L53.8412 86.548L68.217 82.1855L82.5929 86.548L96.9687 82.1855L111.345 86.548L125.72 82.1855L140.096 86.548L154.472 82.1855L168.848 86.548L183.224 82.1855L197.664 86.5667L197.542 86.782L183.224 82.4383L168.848 86.8007Z" fill="white"/>
<path d="M168.848 82.6445L154.472 78.2821L140.096 82.6445L125.72 78.2821L111.345 82.6445L96.9687 78.2821L82.5929 82.6445L68.217 78.2821L53.8412 82.6445L39.4589 78.2821L25.0831 82.6445L10.7072 78.2821L-3.67506 82.6445L-18.1152 78.2633L-17.993 78.048L-3.67506 82.387L10.7072 78.0293L25.0831 82.387L39.4589 78.0293L53.8412 82.387L68.217 78.0293L82.5929 82.387L96.9687 78.0293L111.345 82.387L125.72 78.0293L140.096 82.387L154.472 78.0293L168.848 82.387L183.224 78.0293L197.664 82.4058L197.542 82.6258L183.224 78.2821L168.848 82.6445Z" fill="white"/>
<path d="M168.848 78.4836L154.472 74.1258L140.096 78.4836L125.72 74.1258L111.345 78.4836L96.9687 74.1258L82.5929 78.4836L68.217 74.1258L53.8412 78.4836L39.4589 74.1258L25.0831 78.4836L10.7072 74.1258L-3.67506 78.4836L-18.1152 74.1071L-17.993 73.8918L-3.67506 78.2308L10.7072 73.873L25.0831 78.2308L39.4589 73.873L53.8412 78.2308L68.217 73.873L82.5929 78.2308L96.9687 73.873L111.345 78.2308L125.72 73.873L140.096 78.2308L154.472 73.873L168.848 78.2308L183.224 73.873L197.664 78.2495L197.542 78.4648L183.224 74.1258L168.848 78.4836Z" fill="white"/>
<path d="M168.848 74.3273L154.472 69.9696L140.096 74.3273L125.72 69.9696L111.345 74.3273L96.9687 69.9696L82.5929 74.3273L68.217 69.9696L53.8412 74.3273L39.4589 69.9696L25.0831 74.3273L10.7072 69.9696L-3.67506 74.3273L-18.1152 69.9508L-17.993 69.7355L-3.67506 74.0745L10.7072 69.7168L25.0831 74.0745L39.4589 69.7168L53.8412 74.0745L68.217 69.7168L82.5929 74.0745L96.9687 69.7168L111.345 74.0745L125.72 69.7168L140.096 74.0745L154.472 69.7168L168.848 74.0745L183.224 69.7168L197.664 74.0933L197.542 74.3086L183.224 69.9696L168.848 74.3273Z" fill="white"/>
<path d="M168.848 70.1711L154.472 65.8133L140.096 70.1711L125.72 65.8133L111.345 70.1711L96.9687 65.8133L82.5929 70.1711L68.217 65.8133L53.8412 70.1711L39.4589 65.8133L25.0831 70.1711L10.7072 65.8133L-3.67506 70.1711L-18.1152 65.7946L-17.993 65.5793L-3.67506 69.9183L10.7072 65.5605L25.0831 69.9183L39.4589 65.5605L53.8412 69.9183L68.217 65.5605L82.5929 69.9183L96.9687 65.5605L111.345 69.9183L125.72 65.5605L140.096 69.9183L154.472 65.5605L168.848 69.9183L183.224 65.5605L197.664 69.937L197.542 70.1523L183.224 65.8133L168.848 70.1711Z" fill="white"/>
<path d="M168.848 66.0136L154.472 61.6559L140.096 66.0136L125.72 61.6559L111.345 66.0136L96.9687 61.6559L82.5929 66.0136L68.217 61.6559L53.8412 66.0136L39.4589 61.6559L25.0831 66.0136L10.7072 61.6559L-3.67506 66.0136L-18.1152 61.6372L-17.993 61.4172L-3.67506 65.7609L10.7072 61.3984L25.0831 65.7609L39.4589 61.3984L53.8412 65.7609L68.217 61.3984L82.5929 65.7609L96.9687 61.3984L111.345 65.7609L125.72 61.3984L140.096 65.7609L154.472 61.3984L168.848 65.7609L183.224 61.3984L197.664 65.7796L197.542 65.9949L183.224 61.6559L168.848 66.0136Z" fill="white"/>
<path d="M168.848 61.8574L154.472 57.4996L140.096 61.8574L125.72 57.4996L111.345 61.8574L96.9687 57.4996L82.5929 61.8574L68.217 57.4996L53.8412 61.8574L39.4589 57.4996L25.0831 61.8574L10.7072 57.4996L-3.67506 61.8574L-18.1152 57.4809L-17.993 57.2609L-3.67506 61.6046L10.7072 57.2422L25.0831 61.6046L39.4589 57.2422L53.8412 61.6046L68.217 57.2422L82.5929 61.6046L96.9687 57.2422L111.345 61.6046L125.72 57.2422L140.096 61.6046L154.472 57.2422L168.848 61.6046L183.224 57.2422L197.664 61.6233L197.542 61.8387L183.224 57.4996L168.848 61.8574Z" fill="white"/>
<path d="M168.848 57.7011L154.472 53.3387L140.096 57.7011L125.72 53.3387L111.345 57.7011L96.9687 53.3387L82.5929 57.7011L68.217 53.3387L53.8412 57.7011L39.4589 53.3387L25.0831 57.7011L10.7072 53.3387L-3.67506 57.7011L-18.1152 53.32L-17.993 53.1047L-3.67506 57.4484L10.7072 53.0859L25.0831 57.4484L39.4589 53.0859L53.8412 57.4484L68.217 53.0859L82.5929 57.4484L96.9687 53.0859L111.345 57.4484L125.72 53.0859L140.096 57.4484L154.472 53.0859L168.848 57.4484L183.224 53.0859L197.664 57.4671L197.542 57.6824L183.224 53.3387L168.848 57.7011Z" fill="white"/>
<path d="M168.848 53.5449L154.472 49.1824L140.096 53.5449L125.72 49.1824L111.345 53.5449L96.9687 49.1824L82.5929 53.5449L68.217 49.1824L53.8412 53.5449L39.4589 49.1824L25.0831 53.5449L10.7072 49.1824L-3.67506 53.5449L-18.1152 49.1637L-17.993 48.9484L-3.67506 53.2874L10.7072 48.9297L25.0831 53.2874L39.4589 48.9297L53.8412 53.2874L68.217 48.9297L82.5929 53.2874L96.9687 48.9297L111.345 53.2874L125.72 48.9297L140.096 53.2874L154.472 48.9297L168.848 53.2874L183.224 48.9297L197.664 53.3062L197.542 53.5262L183.224 49.1824L168.848 53.5449Z" fill="white"/>
<path d="M168.848 49.3886L154.472 45.0262L140.096 49.3886L125.72 45.0262L111.345 49.3886L96.9687 45.0262L82.5929 49.3886L68.217 45.0262L53.8412 49.3886L39.4589 45.0262L25.0831 49.3886L10.7072 45.0262L-3.67506 49.3886L-18.1152 45.0075L-17.993 44.7922L-3.67506 49.1312L10.7072 44.7734L25.0831 49.1312L39.4589 44.7734L53.8412 49.1312L68.217 44.7734L82.5929 49.1312L96.9687 44.7734L111.345 49.1312L125.72 44.7734L140.096 49.1312L154.472 44.7734L168.848 49.1312L183.224 44.7734L197.664 49.1499L197.542 49.3699L183.224 45.0262L168.848 49.3886Z" fill="white"/>
</g>
<rect width="161.021" height="251.352" rx="80.5107" transform="matrix(0.828641 0.55978 -0.57812 0.815952 124.632 53.334)" fill="#DAED1A"/>
</g>
</svg>
