<svg width="183" height="58" viewBox="0 0 183 58" fill="none" xmlns="http://www.w3.org/2000/svg">
<path d="M72.425 6.5C74.2917 6.5 75.7583 6.95 76.825 7.85C77.8917 8.75 78.425 9.95833 78.425 11.475C78.425 13.0917 77.8917 14.3333 76.825 15.2C75.7583 16.05 74.3 16.475 72.45 16.475L72.1 16.675H68.55V23H65.15V6.5H72.425ZM72.025 14.05C72.9917 14.05 73.7083 13.8583 74.175 13.475C74.6583 13.075 74.9 12.4667 74.9 11.65C74.9 10.8333 74.6583 10.2333 74.175 9.85C73.7083 9.45 72.9917 9.25 72.025 9.25H68.55V14.05H72.025ZM74.05 14.775L79.4 23H75.525L71.1 15.775L74.05 14.775ZM88.9172 15.025C88.9172 14.3083 88.7089 13.75 88.2922 13.35C87.8922 12.95 87.3589 12.75 86.6922 12.75C86.0755 12.75 85.5339 12.9083 85.0672 13.225C84.6005 13.5417 84.2589 14.0667 84.0422 14.8L81.1172 13.9C81.4005 12.8 82.0172 11.9167 82.9672 11.25C83.9339 10.5833 85.2255 10.25 86.8422 10.25C87.9422 10.25 88.9005 10.425 89.7172 10.775C90.5339 11.1083 91.1672 11.6167 91.6172 12.3C92.0839 12.9833 92.3172 13.8417 92.3172 14.875V19.95C92.3172 20.5833 92.6172 20.9 93.2172 20.9C93.5005 20.9 93.7672 20.8583 94.0172 20.775L93.8172 22.9C93.3839 23.1167 92.8422 23.225 92.1922 23.225C91.6089 23.225 91.0839 23.125 90.6172 22.925C90.1505 22.725 89.7839 22.425 89.5172 22.025C89.2505 21.6083 89.1172 21.0917 89.1172 20.475V20.375L89.7172 20.275C89.6172 20.9083 89.3422 21.45 88.8922 21.9C88.4422 22.3333 87.8922 22.6667 87.2422 22.9C86.6089 23.1333 85.9505 23.25 85.2672 23.25C84.4172 23.25 83.6839 23.125 83.0672 22.875C82.4505 22.6083 81.9755 22.225 81.6422 21.725C81.3089 21.225 81.1422 20.6083 81.1422 19.875C81.1422 18.9417 81.4422 18.1833 82.0422 17.6C82.6422 17 83.5005 16.5917 84.6172 16.375L89.3172 15.425L89.2922 17.55L86.2922 18.15C85.7255 18.2667 85.2922 18.425 84.9922 18.625C84.7089 18.8083 84.5672 19.1167 84.5672 19.55C84.5672 19.9667 84.7172 20.2833 85.0172 20.5C85.3339 20.7167 85.7089 20.825 86.1422 20.825C86.4922 20.825 86.8339 20.7833 87.1672 20.7C87.5005 20.6167 87.8005 20.4833 88.0672 20.3C88.3339 20.1167 88.5422 19.8667 88.6922 19.55C88.8422 19.2333 88.9172 18.85 88.9172 18.4V15.025ZM101.774 10.25C102.89 10.25 103.832 10.4167 104.599 10.75C105.382 11.0667 106.007 11.5083 106.474 12.075C106.957 12.625 107.299 13.2417 107.499 13.925L104.299 15.075C104.132 14.325 103.849 13.7583 103.449 13.375C103.049 12.9917 102.507 12.8 101.824 12.8C101.19 12.8 100.649 12.95 100.199 13.25C99.7488 13.5333 99.4072 13.975 99.1738 14.575C98.9405 15.1583 98.8238 15.8917 98.8238 16.775C98.8238 17.6583 98.9405 18.3917 99.1738 18.975C99.4238 19.5583 99.7738 19.9917 100.224 20.275C100.69 20.5583 101.232 20.7 101.849 20.7C102.349 20.7 102.774 20.6167 103.124 20.45C103.474 20.2667 103.757 20.0083 103.974 19.675C104.207 19.3417 104.365 18.9417 104.449 18.475L107.549 19.475C107.365 20.225 107.024 20.8833 106.524 21.45C106.024 22.0167 105.382 22.4583 104.599 22.775C103.815 23.0917 102.907 23.25 101.874 23.25C100.59 23.25 99.4572 22.9917 98.4738 22.475C97.4905 21.9583 96.7322 21.2167 96.1988 20.25C95.6655 19.2833 95.3988 18.1167 95.3988 16.75C95.3988 15.3833 95.6655 14.2167 96.1988 13.25C96.7322 12.2833 97.4822 11.5417 98.4488 11.025C99.4155 10.5083 100.524 10.25 101.774 10.25ZM110.21 23V5.025H113.635V12.625C114.035 11.825 114.585 11.2333 115.285 10.85C115.985 10.45 116.777 10.25 117.66 10.25C118.527 10.25 119.293 10.4167 119.96 10.75C120.643 11.0833 121.177 11.5917 121.56 12.275C121.96 12.9417 122.16 13.7833 122.16 14.8V23H118.735V15.8C118.735 14.7167 118.527 13.975 118.11 13.575C117.693 13.1583 117.16 12.95 116.51 12.95C116.027 12.95 115.56 13.0667 115.11 13.3C114.677 13.5167 114.318 13.8833 114.035 14.4C113.768 14.9 113.635 15.5667 113.635 16.4V23H110.21ZM131.489 23.25C130.172 23.25 129.022 22.9917 128.039 22.475C127.072 21.9583 126.322 21.2167 125.789 20.25C125.255 19.2833 124.989 18.1167 124.989 16.75C124.989 15.3833 125.255 14.2167 125.789 13.25C126.322 12.2833 127.064 11.5417 128.014 11.025C128.98 10.5083 130.08 10.25 131.314 10.25C132.58 10.25 133.655 10.5083 134.539 11.025C135.422 11.525 136.097 12.2167 136.564 13.1C137.03 13.9667 137.264 14.9583 137.264 16.075C137.264 16.4083 137.255 16.725 137.239 17.025C137.222 17.325 137.197 17.5917 137.164 17.825H127.189V15.45H135.664L134.014 16.05C134.014 15 133.772 14.1917 133.289 13.625C132.822 13.0583 132.155 12.775 131.289 12.775C130.655 12.775 130.105 12.925 129.639 13.225C129.189 13.525 128.847 13.975 128.614 14.575C128.38 15.1583 128.264 15.9 128.264 16.8C128.264 17.6833 128.389 18.4167 128.639 19C128.905 19.5667 129.272 19.9917 129.739 20.275C130.222 20.5583 130.797 20.7 131.464 20.7C132.197 20.7 132.789 20.5583 133.239 20.275C133.689 19.9917 134.039 19.6 134.289 19.1L137.014 20.15C136.747 20.8 136.339 21.3583 135.789 21.825C135.255 22.2917 134.614 22.65 133.864 22.9C133.13 23.1333 132.339 23.25 131.489 23.25ZM143.541 5.025V19.15C143.541 19.7333 143.641 20.1417 143.841 20.375C144.041 20.6083 144.375 20.725 144.841 20.725C145.125 20.725 145.358 20.7083 145.541 20.675C145.725 20.625 145.958 20.5583 146.241 20.475L145.941 22.725C145.658 22.8917 145.3 23.0167 144.866 23.1C144.45 23.2 144.033 23.25 143.616 23.25C142.4 23.25 141.508 22.9583 140.941 22.375C140.391 21.775 140.116 20.825 140.116 19.525V5.025H143.541ZM155.397 15.025C155.397 14.3083 155.188 13.75 154.772 13.35C154.372 12.95 153.838 12.75 153.172 12.75C152.555 12.75 152.013 12.9083 151.547 13.225C151.08 13.5417 150.738 14.0667 150.522 14.8L147.597 13.9C147.88 12.8 148.497 11.9167 149.447 11.25C150.413 10.5833 151.705 10.25 153.322 10.25C154.422 10.25 155.38 10.425 156.197 10.775C157.013 11.1083 157.647 11.6167 158.097 12.3C158.563 12.9833 158.797 13.8417 158.797 14.875V19.95C158.797 20.5833 159.097 20.9 159.697 20.9C159.98 20.9 160.247 20.8583 160.497 20.775L160.297 22.9C159.863 23.1167 159.322 23.225 158.672 23.225C158.088 23.225 157.563 23.125 157.097 22.925C156.63 22.725 156.263 22.425 155.997 22.025C155.73 21.6083 155.597 21.0917 155.597 20.475V20.375L156.197 20.275C156.097 20.9083 155.822 21.45 155.372 21.9C154.922 22.3333 154.372 22.6667 153.722 22.9C153.088 23.1333 152.43 23.25 151.747 23.25C150.897 23.25 150.163 23.125 149.547 22.875C148.93 22.6083 148.455 22.225 148.122 21.725C147.788 21.225 147.622 20.6083 147.622 19.875C147.622 18.9417 147.922 18.1833 148.522 17.6C149.122 17 149.98 16.5917 151.097 16.375L155.797 15.425L155.772 17.55L152.772 18.15C152.205 18.2667 151.772 18.425 151.472 18.625C151.188 18.8083 151.047 19.1167 151.047 19.55C151.047 19.9667 151.197 20.2833 151.497 20.5C151.813 20.7167 152.188 20.825 152.622 20.825C152.972 20.825 153.313 20.7833 153.647 20.7C153.98 20.6167 154.28 20.4833 154.547 20.3C154.813 20.1167 155.022 19.8667 155.172 19.55C155.322 19.2333 155.397 18.85 155.397 18.4V15.025ZM83.1 35.5V52H79.975V43.4L80.15 38.575H80.1L75.525 52H72.7L68.15 38.575H68.1L68.275 43.4V52H65.15V35.5H70.15L73.125 44.5L74.175 48.225H74.225L75.3 44.525L78.25 35.5H83.1ZM94.0686 44.025C94.0686 43.3083 93.8602 42.75 93.4436 42.35C93.0436 41.95 92.5102 41.75 91.8436 41.75C91.2269 41.75 90.6852 41.9083 90.2186 42.225C89.7519 42.5417 89.4102 43.0667 89.1936 43.8L86.2686 42.9C86.5519 41.8 87.1686 40.9167 88.1186 40.25C89.0852 39.5833 90.3769 39.25 91.9936 39.25C93.0936 39.25 94.0519 39.425 94.8686 39.775C95.6852 40.1083 96.3186 40.6167 96.7686 41.3C97.2352 41.9833 97.4686 42.8417 97.4686 43.875V48.95C97.4686 49.5833 97.7686 49.9 98.3686 49.9C98.6519 49.9 98.9186 49.8583 99.1686 49.775L98.9686 51.9C98.5352 52.1167 97.9936 52.225 97.3436 52.225C96.7602 52.225 96.2352 52.125 95.7686 51.925C95.3019 51.725 94.9352 51.425 94.6686 51.025C94.4019 50.6083 94.2686 50.0917 94.2686 49.475V49.375L94.8686 49.275C94.7686 49.9083 94.4936 50.45 94.0436 50.9C93.5936 51.3333 93.0436 51.6667 92.3936 51.9C91.7602 52.1333 91.1019 52.25 90.4186 52.25C89.5686 52.25 88.8352 52.125 88.2186 51.875C87.6019 51.6083 87.1269 51.225 86.7936 50.725C86.4602 50.225 86.2936 49.6083 86.2936 48.875C86.2936 47.9417 86.5936 47.1833 87.1936 46.6C87.7936 46 88.6519 45.5917 89.7686 45.375L94.4686 44.425L94.4436 46.55L91.4436 47.15C90.8769 47.2667 90.4436 47.425 90.1436 47.625C89.8602 47.8083 89.7186 48.1167 89.7186 48.55C89.7186 48.9667 89.8686 49.2833 90.1686 49.5C90.4852 49.7167 90.8602 49.825 91.2936 49.825C91.6436 49.825 91.9852 49.7833 92.3186 49.7C92.6519 49.6167 92.9519 49.4833 93.2186 49.3C93.4852 49.1167 93.6936 48.8667 93.8436 48.55C93.9936 48.2333 94.0686 47.85 94.0686 47.4V44.025ZM101.299 52V39.5H104.274L104.499 41.95C104.832 41.0833 105.316 40.4167 105.949 39.95C106.599 39.4833 107.407 39.25 108.374 39.25C108.657 39.25 108.916 39.275 109.149 39.325C109.382 39.375 109.574 39.4417 109.724 39.525L109.324 42.4C109.157 42.3333 108.949 42.2833 108.699 42.25C108.466 42.2167 108.157 42.2 107.774 42.2C107.274 42.2 106.791 42.325 106.324 42.575C105.857 42.8083 105.474 43.175 105.174 43.675C104.874 44.1583 104.724 44.775 104.724 45.525V52H101.299ZM124.571 39.5L118.796 45.525L118.121 45.85L114.371 49.875L114.321 46.225L120.671 39.5H124.571ZM115.271 34.025V52H111.846V34.025H115.271ZM119.271 43.475L124.871 52H120.996L116.921 45.475L119.271 43.475ZM143.01 39.5H146.66L142.66 52H138.71L135.985 43.5L133.36 52H129.41L125.41 39.5H129.06L131.56 49.075L134.335 39.5H137.735L140.535 49.075L143.01 39.5ZM150.509 37.7C149.793 37.7 149.259 37.55 148.909 37.25C148.559 36.9333 148.384 36.475 148.384 35.875C148.384 35.2583 148.559 34.8 148.909 34.5C149.259 34.1833 149.793 34.025 150.509 34.025C151.226 34.025 151.759 34.1833 152.109 34.5C152.459 34.8 152.634 35.2583 152.634 35.875C152.634 36.475 152.459 36.9333 152.109 37.25C151.759 37.55 151.226 37.7 150.509 37.7ZM152.209 39.5V52H148.784V39.5H152.209ZM161.515 39.25C162.632 39.25 163.573 39.4167 164.34 39.75C165.123 40.0667 165.748 40.5083 166.215 41.075C166.698 41.625 167.04 42.2417 167.24 42.925L164.04 44.075C163.873 43.325 163.59 42.7583 163.19 42.375C162.79 41.9917 162.248 41.8 161.565 41.8C160.932 41.8 160.39 41.95 159.94 42.25C159.49 42.5333 159.148 42.975 158.915 43.575C158.682 44.1583 158.565 44.8917 158.565 45.775C158.565 46.6583 158.682 47.3917 158.915 47.975C159.165 48.5583 159.515 48.9917 159.965 49.275C160.432 49.5583 160.973 49.7 161.59 49.7C162.09 49.7 162.515 49.6167 162.865 49.45C163.215 49.2667 163.498 49.0083 163.715 48.675C163.948 48.3417 164.107 47.9417 164.19 47.475L167.29 48.475C167.107 49.225 166.765 49.8833 166.265 50.45C165.765 51.0167 165.123 51.4583 164.34 51.775C163.557 52.0917 162.648 52.25 161.615 52.25C160.332 52.25 159.198 51.9917 158.215 51.475C157.232 50.9583 156.473 50.2167 155.94 49.25C155.407 48.2833 155.14 47.1167 155.14 45.75C155.14 44.3833 155.407 43.2167 155.94 42.25C156.473 41.2833 157.223 40.5417 158.19 40.025C159.157 39.5083 160.265 39.25 161.515 39.25ZM177.076 44.025C177.076 43.3083 176.868 42.75 176.451 42.35C176.051 41.95 175.518 41.75 174.851 41.75C174.235 41.75 173.693 41.9083 173.226 42.225C172.76 42.5417 172.418 43.0667 172.201 43.8L169.276 42.9C169.56 41.8 170.176 40.9167 171.126 40.25C172.093 39.5833 173.385 39.25 175.001 39.25C176.101 39.25 177.06 39.425 177.876 39.775C178.693 40.1083 179.326 40.6167 179.776 41.3C180.243 41.9833 180.476 42.8417 180.476 43.875V48.95C180.476 49.5833 180.776 49.9 181.376 49.9C181.66 49.9 181.926 49.8583 182.176 49.775L181.976 51.9C181.543 52.1167 181.001 52.225 180.351 52.225C179.768 52.225 179.243 52.125 178.776 51.925C178.31 51.725 177.943 51.425 177.676 51.025C177.41 50.6083 177.276 50.0917 177.276 49.475V49.375L177.876 49.275C177.776 49.9083 177.501 50.45 177.051 50.9C176.601 51.3333 176.051 51.6667 175.401 51.9C174.768 52.1333 174.11 52.25 173.426 52.25C172.576 52.25 171.843 52.125 171.226 51.875C170.61 51.6083 170.135 51.225 169.801 50.725C169.468 50.225 169.301 49.6083 169.301 48.875C169.301 47.9417 169.601 47.1833 170.201 46.6C170.801 46 171.66 45.5917 172.776 45.375L177.476 44.425L177.451 46.55L174.451 47.15C173.885 47.2667 173.451 47.425 173.151 47.625C172.868 47.8083 172.726 48.1167 172.726 48.55C172.726 48.9667 172.876 49.2833 173.176 49.5C173.493 49.7167 173.868 49.825 174.301 49.825C174.651 49.825 174.993 49.7833 175.326 49.7C175.66 49.6167 175.96 49.4833 176.226 49.3C176.493 49.1167 176.701 48.8667 176.851 48.55C177.001 48.2333 177.076 47.85 177.076 47.4V44.025Z" fill="#04091E"/>
<path d="M23 52C35.7025 52 46 41.7026 46 29C46 16.2974 35.7025 6 23 6C10.2974 6 0 16.2974 0 29C0 41.7026 10.2974 52 23 52Z" fill="#DAED1A"/>
<mask id="mask0_402_1455" style="mask-type:luminance" maskUnits="userSpaceOnUse" x="23" y="16" width="13" height="11">
<path d="M25.0232 18.8576H30.0858C32.0576 18.8576 33.112 21.2748 31.6769 22.7139C31.2677 23.1243 30.7041 23.3789 30.0858 23.3789L28.7211 23.3791L28.2106 23.3789L28.2109 23.3791H23.0967C24.5016 23.3791 25.7779 23.9545 26.7022 24.8814C27.095 25.275 27.424 25.7324 27.6731 26.2364H30.0167H30.0189H30.0212H30.0232H30.0255H30.0276H30.0298H30.0321H30.0341H30.0364H30.0384H30.0407H30.043H30.0453H30.0475H30.0498H30.0518H30.0541H30.0564H30.0587H30.061H30.0632H30.0655H30.0678H30.0701H30.0723H30.0746H30.0767H30.0789H30.0812H30.0832H30.0855H30.0878C30.211 26.2364 30.3333 26.2319 30.4543 26.2235L30.4522 26.2202C34.8107 25.889 36.7787 20.5961 33.6936 17.5025C32.7693 16.5756 31.4927 16 30.088 16H25.0255H24.7939V18.8573H25.0232V18.8576Z" fill="white"/>
</mask>
<g mask="url(#mask0_402_1455)">
<path d="M36.7767 16H23.0967V26.2364H36.7767V16Z" fill="url(#paint0_linear_402_1455)"/>
</g>
<mask id="mask1_402_1455" style="mask-type:luminance" maskUnits="userSpaceOnUse" x="11" y="16" width="15" height="6">
<path d="M25.0229 18.8573V16H16.107C13.0748 16 11.025 18.4982 11.0002 21.1185C10.9997 21.1779 11.0002 21.2373 11.0017 21.2969H13.8604C13.855 21.2375 13.852 21.1781 13.8513 21.1185C13.8459 20.5611 14.0494 19.9903 14.5156 19.5228C14.9249 19.1124 15.488 18.8576 16.1068 18.8576H25.0229V18.8573Z" fill="white"/>
</mask>
<g mask="url(#mask1_402_1455)">
<path d="M25.0222 16H10.999V21.2966H25.0222V16Z" fill="white"/>
</g>
<mask id="mask2_402_1455" style="mask-type:luminance" maskUnits="userSpaceOnUse" x="11" y="30" width="9" height="12">
<path d="M19.5367 33.621V30.7637H16.1058C13.296 30.7637 11.002 33.0642 11.002 35.8816C11.002 38.9214 13.4931 40.9778 16.1058 41.0026C16.164 41.0031 16.2219 41.0029 16.2804 41.0014V38.1347C16.2224 38.14 16.1642 38.1428 16.1058 38.1435C15.55 38.1489 14.981 37.9451 14.5146 37.4773C13.0968 36.0555 14.1048 33.621 16.1058 33.621H18.3603H19.5367Z" fill="white"/>
</mask>
<g mask="url(#mask2_402_1455)">
<path d="M19.5364 30.7637H11.002V41.0034H19.5364V30.7637Z" fill="white"/>
</g>
<mask id="mask3_402_1455" style="mask-type:luminance" maskUnits="userSpaceOnUse" x="11" y="21" width="12" height="6">
<path d="M22.3465 23.3798H16.1068C14.7758 23.3798 13.8622 22.278 13.8513 21.1191H11.0002C10.9883 22.3854 11.4495 23.68 12.5013 24.7348C13.4256 25.6617 14.7019 26.2374 16.1068 26.2374H22.3465H22.4518V23.38H22.3465V23.3798Z" fill="white"/>
</mask>
<g mask="url(#mask3_402_1455)">
<path d="M22.452 21.1191H10.9883V26.2371H22.452V21.1191Z" fill="white"/>
</g>
<mask id="mask4_402_1455" style="mask-type:luminance" maskUnits="userSpaceOnUse" x="19" y="23" width="10" height="11">
<path d="M24.6867 30.0891C24.2775 30.4995 23.7143 30.7544 23.0958 30.7544H19.5373H19.4482V33.6117H19.5373H21.2103H23.0958C27.0247 33.6117 29.2783 29.4389 27.6818 26.2326H27.6724C27.4234 25.7288 27.0941 25.2714 26.7016 24.8775C25.7861 23.9595 24.525 23.3862 23.1358 23.3753L23.0958 23.375H22.3464V26.2323H23.0958C25.0668 26.2326 26.1227 28.6491 24.6867 30.0891Z" fill="white"/>
</mask>
<g mask="url(#mask4_402_1455)">
<path d="M29.278 23.375H19.4482V33.6114H29.278V23.375Z" fill="white"/>
</g>
<mask id="mask5_402_1455" style="mask-type:luminance" maskUnits="userSpaceOnUse" x="16" y="33" width="6" height="8">
<path d="M18.3608 35.8712V35.8732V35.875V35.877V35.8791V35.8811V35.8829L18.3605 35.8907V35.8928V35.8948L18.3603 35.9047V35.9067L18.36 35.9146V35.9164V35.9184V35.9202L18.3598 35.9222V35.9242V35.926V35.9281L18.3595 35.9301V35.9319V35.9331L18.3593 35.9339V35.9359V35.9377L18.359 35.9397V35.9418V35.9435L18.3588 35.9456V35.9473L18.3585 35.9494V35.9514L18.3583 35.9532V35.9552L18.358 35.957V35.959L18.3578 35.961V35.9628L18.3575 35.9649V35.9666L18.3572 35.9687V35.9707L18.357 35.9725L18.3567 35.9745V35.9763L18.3565 35.9783V35.9801L18.3562 35.9821L18.356 35.9841V35.9859L18.3557 35.988L18.3552 35.9956H18.3555C18.2887 37.2613 17.2224 38.1207 16.1045 38.1318V40.9912C17.3672 41.0034 18.6582 40.5409 19.71 39.4859C20.6143 38.5785 21.1739 37.344 21.2065 35.9956V35.9935L21.2068 35.9918V35.9897V35.988L21.207 35.9839V35.9821V35.9811L21.2073 35.9773V35.9753L21.2075 35.9694V35.9676L21.2078 35.9598V35.958L21.2081 35.9522V35.9501V35.9484L21.2083 35.9443V35.9425V35.9405V35.9387V35.9374V35.9367L21.2086 35.9347V35.9329V35.9308V35.9288V35.927V35.925V35.923L21.2088 35.9151V35.9131V35.9113V35.9093V35.9072V35.9055V35.9034V35.9014L21.2091 35.8935V35.8915V35.8895V35.8877V35.8857V35.8836V35.8816V35.8798V35.8778V35.8758V35.874V35.872V33.6113H18.3598V35.8712H18.3608Z" fill="white"/>
</mask>
<g mask="url(#mask5_402_1455)">
<path d="M21.2112 33.6113H16.1074V41.0052H21.2112V33.6113Z" fill="white"/>
</g>
<defs>
<linearGradient id="paint0_linear_402_1455" x1="25.2116" y1="18.7918" x2="24.7315" y2="33.3397" gradientUnits="userSpaceOnUse">
<stop stop-color="white"/>
<stop offset="1" stop-color="white" stop-opacity="0"/>
</linearGradient>
</defs>
</svg>
